<svg width="320" height="386" viewBox="0 0 320 386" fill="none" xmlns="http://www.w3.org/2000/svg">
<g filter="url(#filter0_f)">
<rect x="3" y="3" width="314" height="380" rx="15" fill="#1F1A42"/>
</g>
<circle cx="32.5" cy="27.5" r="4.5" fill="#FF4A4A"/>
<circle cx="48.5" cy="27.5" r="4.5" fill="#FFC700"/>
<path d="M69 27.5C69 29.9853 66.9853 32 64.5 32C62.0147 32 60 29.9853 60 27.5C60 25.0147 62.0147 23 64.5 23C66.9853 23 69 25.0147 69 27.5Z" fill="#05FF00"/>
<path d="M83.41 32L83.35 31.12C83.2833 31.2733 83.19 31.4133 83.07 31.54C82.95 31.6667 82.8167 31.7733 82.67 31.86C82.5233 31.9467 82.3633 32.0133 82.19 32.06C82.0233 32.1067 81.8567 32.13 81.69 32.13C81.4033 32.13 81.15 32.0867 80.93 32C80.7167 31.92 80.5267 31.8067 80.36 31.66C80.08 31.4133 79.8733 31.1033 79.74 30.73C79.6067 30.35 79.54 29.9433 79.54 29.51C79.54 29.0967 79.6033 28.7033 79.73 28.33C79.8567 27.9567 80.0533 27.6433 80.32 27.39C80.4867 27.23 80.68 27.1033 80.9 27.01C81.1267 26.9167 81.3867 26.87 81.68 26.87C82.04 26.87 82.3733 26.96 82.68 27.14C82.9933 27.32 83.2167 27.5533 83.35 27.84V24.78H83.85V32H83.41ZM83.36 29.5C83.36 29.1267 83.3133 28.7967 83.22 28.51C83.1267 28.2167 82.9633 27.9633 82.73 27.75C82.6033 27.63 82.4533 27.5367 82.28 27.47C82.1133 27.3967 81.9133 27.36 81.68 27.36C81.4467 27.36 81.2433 27.4 81.07 27.48C80.8967 27.56 80.7433 27.6667 80.61 27.8C80.4167 28.0133 80.2733 28.27 80.18 28.57C80.0933 28.87 80.05 29.18 80.05 29.5C80.05 29.86 80.1 30.1967 80.2 30.51C80.3067 30.8233 80.4767 31.0833 80.71 31.29C80.8367 31.4033 80.98 31.49 81.14 31.55C81.3 31.61 81.4867 31.64 81.7 31.64C81.92 31.64 82.1133 31.6033 82.28 31.53C82.4467 31.4567 82.5933 31.36 82.72 31.24C82.9467 31.02 83.11 30.7633 83.21 30.47C83.31 30.17 83.36 29.8467 83.36 29.5ZM90.1298 29.29C90.1298 29.35 90.1265 29.4067 90.1198 29.46C90.1198 29.5067 90.1198 29.56 90.1198 29.62H86.2998C86.3065 29.9133 86.3532 30.19 86.4398 30.45C86.5332 30.7033 86.6598 30.9267 86.8198 31.12C86.9598 31.2867 87.1265 31.4167 87.3198 31.51C87.5198 31.6033 87.7565 31.65 88.0298 31.65C88.4765 31.65 88.8398 31.5033 89.1198 31.21C89.2132 31.1167 89.2898 31.0133 89.3498 30.9C89.4165 30.7867 89.4665 30.6533 89.4998 30.5H90.0198C89.9865 30.7133 89.9198 30.91 89.8198 31.09C89.7198 31.2633 89.5998 31.4167 89.4598 31.55C89.2798 31.73 89.0665 31.8733 88.8198 31.98C88.5798 32.08 88.3165 32.13 88.0298 32.13C87.6698 32.13 87.3598 32.0633 87.0998 31.93C86.8398 31.7967 86.6198 31.6267 86.4398 31.42C86.2332 31.18 86.0732 30.9 85.9598 30.58C85.8532 30.2533 85.7998 29.9 85.7998 29.52C85.7998 29.2 85.8332 28.89 85.8998 28.59C85.9665 28.29 86.0965 28.0067 86.2898 27.74C86.7165 27.16 87.2832 26.87 87.9898 26.87C88.3298 26.87 88.6298 26.9367 88.8898 27.07C89.1565 27.2033 89.3798 27.3833 89.5598 27.61C89.7465 27.83 89.8865 28.0867 89.9798 28.38C90.0798 28.6733 90.1298 28.9767 90.1298 29.29ZM89.6198 29.16C89.6132 28.92 89.5732 28.6933 89.4998 28.48C89.4265 28.26 89.3198 28.0667 89.1798 27.9C89.0398 27.7267 88.8698 27.59 88.6698 27.49C88.4698 27.39 88.2432 27.34 87.9898 27.34C87.7298 27.34 87.4965 27.39 87.2898 27.49C87.0832 27.5833 86.9065 27.7133 86.7598 27.88C86.6198 28.0467 86.5098 28.24 86.4298 28.46C86.3498 28.68 86.3098 28.9133 86.3098 29.16H89.6198ZM94.5205 25.23C94.4205 25.2167 94.3105 25.2033 94.1905 25.19C94.0771 25.1767 93.9471 25.17 93.8005 25.17C93.1671 25.17 92.8505 25.4933 92.8505 26.14V27H94.4205V27.46H92.8505V32H92.3505V27.46H91.3505V27H92.3505V26.12C92.3505 25.9267 92.3805 25.7467 92.4405 25.58C92.5005 25.4133 92.5871 25.2667 92.7005 25.14C92.8205 25.0067 92.9671 24.9033 93.1405 24.83C93.3205 24.7567 93.5271 24.72 93.7605 24.72C93.9071 24.72 94.0405 24.7267 94.1605 24.74C94.2805 24.7467 94.4005 24.76 94.5205 24.78V25.23ZM95.8863 25.61V24.91H96.5863V25.61H95.8863ZM95.9763 32V27H96.5063V32H95.9763ZM102.374 32V28.73C102.374 28.29 102.274 27.9533 102.074 27.72C101.874 27.48 101.544 27.36 101.084 27.36C100.777 27.36 100.517 27.42 100.304 27.54C100.091 27.66 99.9173 27.82 99.784 28.02C99.6573 28.22 99.564 28.45 99.504 28.71C99.4507 28.9633 99.424 29.2267 99.424 29.5V32H98.924V27H99.364L99.424 27.91C99.564 27.59 99.7907 27.3367 100.104 27.15C100.424 26.9633 100.761 26.87 101.114 26.87C101.694 26.87 102.131 27.0333 102.424 27.36C102.724 27.6867 102.874 28.1333 102.874 28.7V32H102.374ZM109.054 29.29C109.054 29.35 109.051 29.4067 109.044 29.46C109.044 29.5067 109.044 29.56 109.044 29.62H105.224C105.231 29.9133 105.277 30.19 105.364 30.45C105.457 30.7033 105.584 30.9267 105.744 31.12C105.884 31.2867 106.051 31.4167 106.244 31.51C106.444 31.6033 106.681 31.65 106.954 31.65C107.401 31.65 107.764 31.5033 108.044 31.21C108.137 31.1167 108.214 31.0133 108.274 30.9C108.341 30.7867 108.391 30.6533 108.424 30.5H108.944C108.911 30.7133 108.844 30.91 108.744 31.09C108.644 31.2633 108.524 31.4167 108.384 31.55C108.204 31.73 107.991 31.8733 107.744 31.98C107.504 32.08 107.241 32.13 106.954 32.13C106.594 32.13 106.284 32.0633 106.024 31.93C105.764 31.7967 105.544 31.6267 105.364 31.42C105.157 31.18 104.997 30.9 104.884 30.58C104.777 30.2533 104.724 29.9 104.724 29.52C104.724 29.2 104.757 28.89 104.824 28.59C104.891 28.29 105.021 28.0067 105.214 27.74C105.641 27.16 106.207 26.87 106.914 26.87C107.254 26.87 107.554 26.9367 107.814 27.07C108.081 27.2033 108.304 27.3833 108.484 27.61C108.671 27.83 108.811 28.0867 108.904 28.38C109.004 28.6733 109.054 28.9767 109.054 29.29ZM108.544 29.16C108.537 28.92 108.497 28.6933 108.424 28.48C108.351 28.26 108.244 28.0667 108.104 27.9C107.964 27.7267 107.794 27.59 107.594 27.49C107.394 27.39 107.167 27.34 106.914 27.34C106.654 27.34 106.421 27.39 106.214 27.49C106.007 27.5833 105.831 27.7133 105.684 27.88C105.544 28.0467 105.434 28.24 105.354 28.46C105.274 28.68 105.234 28.9133 105.234 29.16H108.544ZM117.633 32C117.573 32.0133 117.533 32.02 117.513 32.02C117.493 32.0267 117.453 32.03 117.393 32.03C117.24 32.03 117.11 32.0033 117.003 31.95C116.903 31.8967 116.823 31.8267 116.763 31.74C116.703 31.6467 116.66 31.5433 116.633 31.43C116.613 31.31 116.603 31.1833 116.603 31.05C116.536 31.23 116.44 31.3867 116.313 31.52C116.193 31.6533 116.053 31.7667 115.893 31.86C115.733 31.9467 115.56 32.0133 115.373 32.06C115.186 32.1067 114.996 32.13 114.803 32.13C114.563 32.13 114.336 32.0933 114.123 32.02C113.916 31.9533 113.733 31.8533 113.573 31.72C113.42 31.5867 113.3 31.4267 113.213 31.24C113.126 31.0467 113.083 30.83 113.083 30.59C113.083 30.1433 113.236 29.7933 113.543 29.54C113.856 29.28 114.263 29.1333 114.763 29.1L116.603 28.97V28.48C116.603 28.0667 116.476 27.7733 116.223 27.6C115.976 27.4267 115.663 27.34 115.283 27.34C114.883 27.34 114.55 27.43 114.283 27.61C114.016 27.79 113.87 28.0667 113.843 28.44H113.343C113.376 27.9333 113.573 27.5467 113.933 27.28C114.293 27.0067 114.743 26.87 115.283 26.87C115.456 26.87 115.626 26.8867 115.793 26.92C115.966 26.9467 116.13 26.9967 116.283 27.07C116.436 27.1433 116.573 27.24 116.693 27.36C116.813 27.4733 116.906 27.6167 116.973 27.79C117.033 27.9433 117.07 28.1 117.083 28.26C117.096 28.42 117.103 28.5833 117.103 28.75V31.03C117.103 31.2033 117.123 31.3367 117.163 31.43C117.21 31.5233 117.32 31.57 117.493 31.57C117.553 31.57 117.6 31.5667 117.633 31.56V32ZM116.603 29.43L114.813 29.54C114.44 29.5667 114.143 29.6733 113.923 29.86C113.703 30.04 113.593 30.2833 113.593 30.59C113.593 30.95 113.71 31.22 113.943 31.4C114.183 31.58 114.483 31.67 114.843 31.67C115.156 31.67 115.423 31.6133 115.643 31.5C115.87 31.38 116.053 31.2267 116.193 31.04C116.333 30.8533 116.436 30.6433 116.503 30.41C116.57 30.17 116.603 29.93 116.603 29.69V29.43ZM122.079 27.48C121.999 27.46 121.915 27.4467 121.829 27.44C121.749 27.4333 121.669 27.43 121.589 27.43C121.275 27.43 121.015 27.4933 120.809 27.62C120.609 27.7467 120.449 27.9133 120.329 28.12C120.209 28.3267 120.122 28.56 120.069 28.82C120.022 29.08 119.999 29.34 119.999 29.6V32H119.499V27H119.939L119.999 28.01C120.112 27.6633 120.315 27.4 120.609 27.22C120.909 27.04 121.235 26.95 121.589 26.95C121.669 26.95 121.749 26.9533 121.829 26.96C121.915 26.96 121.999 26.9667 122.079 26.98V27.48ZM123.667 25.61V24.91H124.367V25.61H123.667ZM123.757 32V27H124.287V32H123.757ZM129.205 25.23C129.105 25.2167 128.995 25.2033 128.875 25.19C128.762 25.1767 128.632 25.17 128.485 25.17C127.852 25.17 127.535 25.4933 127.535 26.14V27H129.105V27.46H127.535V32H127.035V27.46H126.035V27H127.035V26.12C127.035 25.9267 127.065 25.7467 127.125 25.58C127.185 25.4133 127.272 25.2667 127.385 25.14C127.505 25.0067 127.652 24.9033 127.825 24.83C128.005 24.7567 128.212 24.72 128.445 24.72C128.592 24.72 128.725 24.7267 128.845 24.74C128.965 24.7467 129.085 24.76 129.205 24.78V25.23ZM137.469 29.51C137.469 29.9433 137.402 30.35 137.269 30.73C137.136 31.1033 136.929 31.4133 136.649 31.66C136.482 31.8067 136.289 31.92 136.069 32C135.856 32.0867 135.606 32.13 135.319 32.13C135.152 32.13 134.982 32.1067 134.809 32.06C134.642 32.0133 134.486 31.9467 134.339 31.86C134.192 31.7733 134.059 31.6667 133.939 31.54C133.819 31.4133 133.726 31.2733 133.659 31.12L133.599 32H133.159V24.78H133.659V27.84C133.792 27.5533 134.012 27.32 134.319 27.14C134.632 26.96 134.969 26.87 135.329 26.87C135.622 26.87 135.879 26.9167 136.099 27.01C136.326 27.1033 136.522 27.23 136.689 27.39C136.956 27.6433 137.152 27.9567 137.279 28.33C137.406 28.7033 137.469 29.0967 137.469 29.51ZM136.959 29.5C136.959 29.18 136.912 28.87 136.819 28.57C136.732 28.27 136.592 28.0133 136.399 27.8C136.266 27.6667 136.112 27.56 135.939 27.48C135.766 27.4 135.562 27.36 135.329 27.36C135.096 27.36 134.892 27.3967 134.719 27.47C134.552 27.5367 134.406 27.63 134.279 27.75C134.046 27.9633 133.882 28.2167 133.789 28.51C133.696 28.7967 133.649 29.1267 133.649 29.5C133.649 29.8467 133.699 30.17 133.799 30.47C133.899 30.7633 134.062 31.02 134.289 31.24C134.416 31.36 134.562 31.4567 134.729 31.53C134.896 31.6033 135.089 31.64 135.309 31.64C135.522 31.64 135.709 31.61 135.869 31.55C136.029 31.49 136.172 31.4033 136.299 31.29C136.532 31.0833 136.699 30.8233 136.799 30.51C136.906 30.1967 136.959 29.86 136.959 29.5ZM143.539 32C143.479 32.0133 143.439 32.02 143.419 32.02C143.399 32.0267 143.359 32.03 143.299 32.03C143.146 32.03 143.016 32.0033 142.909 31.95C142.809 31.8967 142.729 31.8267 142.669 31.74C142.609 31.6467 142.566 31.5433 142.539 31.43C142.519 31.31 142.509 31.1833 142.509 31.05C142.442 31.23 142.346 31.3867 142.219 31.52C142.099 31.6533 141.959 31.7667 141.799 31.86C141.639 31.9467 141.466 32.0133 141.279 32.06C141.092 32.1067 140.902 32.13 140.709 32.13C140.469 32.13 140.242 32.0933 140.029 32.02C139.822 31.9533 139.639 31.8533 139.479 31.72C139.326 31.5867 139.206 31.4267 139.119 31.24C139.032 31.0467 138.989 30.83 138.989 30.59C138.989 30.1433 139.142 29.7933 139.449 29.54C139.762 29.28 140.169 29.1333 140.669 29.1L142.509 28.97V28.48C142.509 28.0667 142.382 27.7733 142.129 27.6C141.882 27.4267 141.569 27.34 141.189 27.34C140.789 27.34 140.456 27.43 140.189 27.61C139.922 27.79 139.776 28.0667 139.749 28.44H139.249C139.282 27.9333 139.479 27.5467 139.839 27.28C140.199 27.0067 140.649 26.87 141.189 26.87C141.362 26.87 141.532 26.8867 141.699 26.92C141.872 26.9467 142.036 26.9967 142.189 27.07C142.342 27.1433 142.479 27.24 142.599 27.36C142.719 27.4733 142.812 27.6167 142.879 27.79C142.939 27.9433 142.976 28.1 142.989 28.26C143.002 28.42 143.009 28.5833 143.009 28.75V31.03C143.009 31.2033 143.029 31.3367 143.069 31.43C143.116 31.5233 143.226 31.57 143.399 31.57C143.459 31.57 143.506 31.5667 143.539 31.56V32ZM142.509 29.43L140.719 29.54C140.346 29.5667 140.049 29.6733 139.829 29.86C139.609 30.04 139.499 30.2833 139.499 30.59C139.499 30.95 139.616 31.22 139.849 31.4C140.089 31.58 140.389 31.67 140.749 31.67C141.062 31.67 141.329 31.6133 141.549 31.5C141.776 31.38 141.959 31.2267 142.099 31.04C142.239 30.8533 142.342 30.6433 142.409 30.41C142.476 30.17 142.509 29.93 142.509 29.69V29.43ZM148.974 30.61C148.974 30.9633 148.861 31.27 148.634 31.53C148.454 31.73 148.221 31.88 147.934 31.98C147.654 32.08 147.348 32.13 147.014 32.13C146.674 32.13 146.364 32.0767 146.084 31.97C145.804 31.8633 145.568 31.7033 145.374 31.49C145.234 31.33 145.131 31.1733 145.064 31.02C145.004 30.8667 144.968 30.6867 144.954 30.48H145.464C145.491 30.7733 145.614 31.03 145.834 31.25C145.981 31.39 146.154 31.4933 146.354 31.56C146.554 31.62 146.774 31.65 147.014 31.65C147.274 31.65 147.504 31.62 147.704 31.56C147.904 31.5 148.068 31.4067 148.194 31.28C148.288 31.1867 148.354 31.0933 148.394 31C148.441 30.9067 148.464 30.7867 148.464 30.64C148.464 30.4133 148.384 30.2167 148.224 30.05C148.071 29.8767 147.844 29.77 147.544 29.73L146.574 29.6C146.368 29.5733 146.161 29.5233 145.954 29.45C145.754 29.3767 145.584 29.26 145.444 29.1C145.258 28.88 145.164 28.6167 145.164 28.31C145.164 28.11 145.201 27.93 145.274 27.77C145.354 27.6033 145.461 27.46 145.594 27.34C145.774 27.1733 145.981 27.0533 146.214 26.98C146.454 26.9067 146.704 26.87 146.964 26.87C147.264 26.87 147.548 26.92 147.814 27.02C148.081 27.1133 148.301 27.26 148.474 27.46C148.588 27.5933 148.678 27.74 148.744 27.9C148.811 28.06 148.848 28.22 148.854 28.38H148.354C148.341 28.3 148.314 28.2033 148.274 28.09C148.241 27.9767 148.184 27.8733 148.104 27.78C147.991 27.6467 147.838 27.54 147.644 27.46C147.451 27.38 147.224 27.34 146.964 27.34C146.578 27.34 146.278 27.4167 146.064 27.57C145.804 27.7567 145.674 27.9867 145.674 28.26C145.674 28.4733 145.741 28.6533 145.874 28.8C146.008 28.9467 146.264 29.0467 146.644 29.1L147.594 29.23C147.828 29.2633 148.031 29.3267 148.204 29.42C148.378 29.5067 148.521 29.6133 148.634 29.74C148.748 29.8667 148.831 30.0067 148.884 30.16C148.944 30.3067 148.974 30.4567 148.974 30.61ZM154.372 32V28.73C154.372 28.29 154.272 27.95 154.072 27.71C153.872 27.4633 153.542 27.34 153.082 27.34C152.775 27.34 152.515 27.4033 152.302 27.53C152.088 27.65 151.915 27.8133 151.782 28.02C151.655 28.22 151.562 28.45 151.502 28.71C151.448 28.9633 151.422 29.2267 151.422 29.5V32H150.922V24.78H151.422V27.92C151.562 27.6 151.788 27.3467 152.102 27.16C152.422 26.9667 152.758 26.87 153.112 26.87C153.692 26.87 154.128 27.0333 154.422 27.36C154.722 27.6867 154.872 28.1333 154.872 28.7V32H154.372ZM161.292 32C161.232 32.0133 161.192 32.02 161.172 32.02C161.152 32.0267 161.112 32.03 161.052 32.03C160.898 32.03 160.768 32.0033 160.662 31.95C160.562 31.8967 160.482 31.8267 160.422 31.74C160.362 31.6467 160.318 31.5433 160.292 31.43C160.272 31.31 160.262 31.1833 160.262 31.05C160.195 31.23 160.098 31.3867 159.972 31.52C159.852 31.6533 159.712 31.7667 159.552 31.86C159.392 31.9467 159.218 32.0133 159.032 32.06C158.845 32.1067 158.655 32.13 158.462 32.13C158.222 32.13 157.995 32.0933 157.782 32.02C157.575 31.9533 157.392 31.8533 157.232 31.72C157.078 31.5867 156.958 31.4267 156.872 31.24C156.785 31.0467 156.742 30.83 156.742 30.59C156.742 30.1433 156.895 29.7933 157.202 29.54C157.515 29.28 157.922 29.1333 158.422 29.1L160.262 28.97V28.48C160.262 28.0667 160.135 27.7733 159.882 27.6C159.635 27.4267 159.322 27.34 158.942 27.34C158.542 27.34 158.208 27.43 157.942 27.61C157.675 27.79 157.528 28.0667 157.502 28.44H157.002C157.035 27.9333 157.232 27.5467 157.592 27.28C157.952 27.0067 158.402 26.87 158.942 26.87C159.115 26.87 159.285 26.8867 159.452 26.92C159.625 26.9467 159.788 26.9967 159.942 27.07C160.095 27.1433 160.232 27.24 160.352 27.36C160.472 27.4733 160.565 27.6167 160.632 27.79C160.692 27.9433 160.728 28.1 160.742 28.26C160.755 28.42 160.762 28.5833 160.762 28.75V31.03C160.762 31.2033 160.782 31.3367 160.822 31.43C160.868 31.5233 160.978 31.57 161.152 31.57C161.212 31.57 161.258 31.5667 161.292 31.56V32ZM160.262 29.43L158.472 29.54C158.098 29.5667 157.802 29.6733 157.582 29.86C157.362 30.04 157.252 30.2833 157.252 30.59C157.252 30.95 157.368 31.22 157.602 31.4C157.842 31.58 158.142 31.67 158.502 31.67C158.815 31.67 159.082 31.6133 159.302 31.5C159.528 31.38 159.712 31.2267 159.852 31.04C159.992 30.8533 160.095 30.6433 160.162 30.41C160.228 30.17 160.262 29.93 160.262 29.69V29.43ZM165.737 27.48C165.657 27.46 165.574 27.4467 165.487 27.44C165.407 27.4333 165.327 27.43 165.247 27.43C164.934 27.43 164.674 27.4933 164.467 27.62C164.267 27.7467 164.107 27.9133 163.987 28.12C163.867 28.3267 163.781 28.56 163.727 28.82C163.681 29.08 163.657 29.34 163.657 29.6V32H163.157V27H163.597L163.657 28.01C163.771 27.6633 163.974 27.4 164.267 27.22C164.567 27.04 164.894 26.95 165.247 26.95C165.327 26.95 165.407 26.9533 165.487 26.96C165.574 26.96 165.657 26.9667 165.737 26.98V27.48ZM169.674 29.21V28.75H172.504V29.21H169.674ZM181.769 32L181.659 30.91C181.565 31.0967 181.445 31.2667 181.299 31.42C181.152 31.5733 180.985 31.7033 180.799 31.81C180.619 31.91 180.425 31.9867 180.219 32.04C180.012 32.1 179.802 32.13 179.589 32.13C179.209 32.13 178.855 32.06 178.529 31.92C178.209 31.78 177.939 31.6 177.719 31.38C177.532 31.1933 177.379 30.9833 177.259 30.75C177.139 30.5167 177.045 30.2733 176.979 30.02C176.919 29.76 176.875 29.5 176.849 29.24C176.829 28.9733 176.819 28.7133 176.819 28.46C176.819 28.2067 176.829 27.95 176.849 27.69C176.869 27.4233 176.912 27.1633 176.979 26.91C177.045 26.6567 177.135 26.4133 177.249 26.18C177.369 25.9467 177.525 25.7367 177.719 25.55C177.945 25.33 178.219 25.1467 178.539 25C178.859 24.8533 179.209 24.78 179.589 24.78C179.955 24.78 180.289 24.8333 180.589 24.94C180.895 25.0467 181.159 25.1933 181.379 25.38C181.599 25.5667 181.775 25.79 181.909 26.05C182.042 26.3033 182.122 26.5833 182.149 26.89H181.619C181.599 26.6567 181.549 26.46 181.469 26.3C181.389 26.1333 181.282 25.9767 181.149 25.83C180.962 25.63 180.732 25.49 180.459 25.41C180.192 25.33 179.905 25.29 179.599 25.29C179.292 25.29 179.015 25.3433 178.769 25.45C178.529 25.55 178.315 25.69 178.129 25.87C177.962 26.03 177.829 26.2167 177.729 26.43C177.629 26.6367 177.552 26.8567 177.499 27.09C177.445 27.3167 177.409 27.5467 177.389 27.78C177.369 28.0133 177.359 28.24 177.359 28.46C177.359 28.6733 177.369 28.9 177.389 29.14C177.409 29.38 177.445 29.6167 177.499 29.85C177.552 30.0833 177.629 30.3067 177.729 30.52C177.835 30.7267 177.972 30.91 178.139 31.07C178.525 31.4367 179.009 31.62 179.589 31.62C179.875 31.62 180.142 31.57 180.389 31.47C180.642 31.37 180.849 31.2333 181.009 31.06C181.149 30.9067 181.259 30.7433 181.339 30.57C181.425 30.39 181.489 30.2067 181.529 30.02C181.575 29.8267 181.602 29.63 181.609 29.43C181.622 29.23 181.629 29.0333 181.629 28.84H179.539V28.33H182.159V32H181.769ZM188.276 29.5C188.276 29.9267 188.223 30.3067 188.116 30.64C188.01 30.9733 187.826 31.27 187.566 31.53C187.393 31.7033 187.183 31.8467 186.936 31.96C186.696 32.0733 186.42 32.13 186.106 32.13C185.793 32.13 185.513 32.0733 185.266 31.96C185.026 31.8467 184.82 31.7033 184.646 31.53C184.386 31.27 184.203 30.9733 184.096 30.64C183.99 30.3067 183.936 29.9267 183.936 29.5C183.936 29.0733 183.99 28.6933 184.096 28.36C184.203 28.0267 184.386 27.73 184.646 27.47C184.82 27.2967 185.026 27.1533 185.266 27.04C185.513 26.9267 185.793 26.87 186.106 26.87C186.42 26.87 186.696 26.9267 186.936 27.04C187.183 27.1533 187.393 27.2967 187.566 27.47C187.826 27.73 188.01 28.0267 188.116 28.36C188.223 28.6933 188.276 29.0733 188.276 29.5ZM187.766 29.5C187.766 29.1733 187.73 28.8667 187.656 28.58C187.583 28.2933 187.433 28.0333 187.206 27.8C187.073 27.6667 186.916 27.56 186.736 27.48C186.556 27.4 186.346 27.36 186.106 27.36C185.866 27.36 185.656 27.4 185.476 27.48C185.296 27.56 185.14 27.6667 185.006 27.8C184.78 28.0333 184.63 28.2933 184.556 28.58C184.483 28.8667 184.446 29.1733 184.446 29.5C184.446 29.8267 184.483 30.1333 184.556 30.42C184.63 30.7067 184.78 30.9667 185.006 31.2C185.14 31.3333 185.296 31.44 185.476 31.52C185.656 31.6 185.866 31.64 186.106 31.64C186.346 31.64 186.556 31.6 186.736 31.52C186.916 31.44 187.073 31.3333 187.206 31.2C187.433 30.9667 187.583 30.7067 187.656 30.42C187.73 30.1333 187.766 29.8267 187.766 29.5ZM194.135 29.5C194.135 29.9267 194.082 30.3067 193.975 30.64C193.868 30.9733 193.685 31.27 193.425 31.53C193.252 31.7033 193.042 31.8467 192.795 31.96C192.555 32.0733 192.278 32.13 191.965 32.13C191.652 32.13 191.372 32.0733 191.125 31.96C190.885 31.8467 190.678 31.7033 190.505 31.53C190.245 31.27 190.062 30.9733 189.955 30.64C189.848 30.3067 189.795 29.9267 189.795 29.5C189.795 29.0733 189.848 28.6933 189.955 28.36C190.062 28.0267 190.245 27.73 190.505 27.47C190.678 27.2967 190.885 27.1533 191.125 27.04C191.372 26.9267 191.652 26.87 191.965 26.87C192.278 26.87 192.555 26.9267 192.795 27.04C193.042 27.1533 193.252 27.2967 193.425 27.47C193.685 27.73 193.868 28.0267 193.975 28.36C194.082 28.6933 194.135 29.0733 194.135 29.5ZM193.625 29.5C193.625 29.1733 193.588 28.8667 193.515 28.58C193.442 28.2933 193.292 28.0333 193.065 27.8C192.932 27.6667 192.775 27.56 192.595 27.48C192.415 27.4 192.205 27.36 191.965 27.36C191.725 27.36 191.515 27.4 191.335 27.48C191.155 27.56 190.998 27.6667 190.865 27.8C190.638 28.0333 190.488 28.2933 190.415 28.58C190.342 28.8667 190.305 29.1733 190.305 29.5C190.305 29.8267 190.342 30.1333 190.415 30.42C190.488 30.7067 190.638 30.9667 190.865 31.2C190.998 31.3333 191.155 31.44 191.335 31.52C191.515 31.6 191.725 31.64 191.965 31.64C192.205 31.64 192.415 31.6 192.595 31.52C192.775 31.44 192.932 31.3333 193.065 31.2C193.292 30.9667 193.442 30.7067 193.515 30.42C193.588 30.1333 193.625 29.8267 193.625 29.5ZM200.234 32.75C200.234 32.9433 200.197 33.1167 200.124 33.27C200.057 33.43 199.967 33.5667 199.854 33.68C199.641 33.9 199.357 34.0533 199.004 34.14C198.651 34.2267 198.274 34.27 197.874 34.27C197.494 34.27 197.141 34.2267 196.814 34.14C196.494 34.0533 196.227 33.9033 196.014 33.69C195.901 33.5767 195.814 33.4467 195.754 33.3C195.694 33.1533 195.664 32.9833 195.664 32.79C195.664 32.55 195.731 32.3233 195.864 32.11C195.997 31.8967 196.181 31.7333 196.414 31.62C196.241 31.5667 196.091 31.46 195.964 31.3C195.844 31.14 195.784 30.9733 195.784 30.8C195.784 30.5867 195.834 30.4033 195.934 30.25C196.041 30.0967 196.191 29.9633 196.384 29.85C196.231 29.6967 196.107 29.52 196.014 29.32C195.927 29.1133 195.884 28.88 195.884 28.62C195.884 28.3467 195.931 28.1033 196.024 27.89C196.124 27.6767 196.257 27.4933 196.424 27.34C196.591 27.1867 196.787 27.07 197.014 26.99C197.247 26.91 197.494 26.87 197.754 26.87C198.194 26.87 198.584 26.9833 198.924 27.21C198.991 26.9967 199.117 26.83 199.304 26.71C199.497 26.59 199.707 26.53 199.934 26.53C199.967 26.53 199.997 26.5333 200.024 26.54C200.057 26.5467 200.091 26.55 200.124 26.55V26.98C200.091 26.98 200.057 26.9767 200.024 26.97C199.997 26.9633 199.967 26.96 199.934 26.96C199.754 26.96 199.601 27.0067 199.474 27.1C199.354 27.1933 199.277 27.3267 199.244 27.5C199.371 27.6467 199.467 27.8133 199.534 28C199.607 28.1867 199.644 28.3933 199.644 28.62C199.644 28.8867 199.594 29.13 199.494 29.35C199.394 29.5633 199.257 29.7433 199.084 29.89C198.917 30.0367 198.717 30.15 198.484 30.23C198.257 30.31 198.014 30.35 197.754 30.35C197.381 30.35 197.047 30.2733 196.754 30.12C196.621 30.1733 196.504 30.2533 196.404 30.36C196.304 30.46 196.254 30.5867 196.254 30.74C196.254 30.86 196.287 30.96 196.354 31.04C196.421 31.1133 196.504 31.17 196.604 31.21C196.697 31.2433 196.807 31.2667 196.934 31.28C197.067 31.2867 197.181 31.29 197.274 31.29H198.364C198.684 31.29 198.967 31.33 199.214 31.41C199.467 31.49 199.674 31.6133 199.834 31.78C199.954 31.9 200.051 32.0367 200.124 32.19C200.197 32.3433 200.234 32.53 200.234 32.75ZM199.144 28.62C199.144 28.42 199.107 28.24 199.034 28.08C198.967 27.92 198.871 27.7833 198.744 27.67C198.617 27.5567 198.467 27.47 198.294 27.41C198.127 27.35 197.947 27.32 197.754 27.32C197.561 27.32 197.377 27.35 197.204 27.41C197.037 27.47 196.891 27.5567 196.764 27.67C196.644 27.7833 196.547 27.92 196.474 28.08C196.407 28.24 196.374 28.42 196.374 28.62C196.374 29.02 196.507 29.3333 196.774 29.56C197.041 29.7867 197.367 29.9 197.754 29.9C197.947 29.9 198.127 29.87 198.294 29.81C198.467 29.75 198.617 29.6667 198.744 29.56C198.871 29.4467 198.967 29.3133 199.034 29.16C199.107 29 199.144 28.82 199.144 28.62ZM199.734 32.75C199.734 32.61 199.711 32.49 199.664 32.39C199.624 32.2967 199.567 32.21 199.494 32.13C199.381 32.01 199.224 31.92 199.024 31.86C198.831 31.7933 198.584 31.76 198.284 31.76H196.964C196.751 31.8133 196.557 31.9233 196.384 32.09C196.217 32.2567 196.134 32.49 196.134 32.79C196.134 32.9233 196.157 33.0433 196.204 33.15C196.257 33.2567 196.324 33.3467 196.404 33.42C196.584 33.5933 196.811 33.7033 197.084 33.75C197.364 33.7967 197.631 33.82 197.884 33.82C198.011 33.82 198.144 33.8133 198.284 33.8C198.431 33.7933 198.577 33.7733 198.724 33.74C198.871 33.7133 199.007 33.67 199.134 33.61C199.267 33.55 199.381 33.4733 199.474 33.38C199.547 33.3067 199.607 33.2167 199.654 33.11C199.707 33.0033 199.734 32.8833 199.734 32.75ZM203.236 32C203.183 32.0133 203.12 32.0267 203.046 32.04C202.98 32.0533 202.893 32.06 202.786 32.06C202.466 32.06 202.22 31.9767 202.046 31.81C201.873 31.6367 201.786 31.3667 201.786 31V24.78H202.286V30.98C202.286 31.1533 202.32 31.2967 202.386 31.41C202.453 31.5233 202.593 31.58 202.806 31.58C202.906 31.58 202.983 31.58 203.036 31.58C203.096 31.58 203.163 31.5733 203.236 31.56V32ZM208.909 29.29C208.909 29.35 208.906 29.4067 208.899 29.46C208.899 29.5067 208.899 29.56 208.899 29.62H205.079C205.086 29.9133 205.132 30.19 205.219 30.45C205.312 30.7033 205.439 30.9267 205.599 31.12C205.739 31.2867 205.906 31.4167 206.099 31.51C206.299 31.6033 206.536 31.65 206.809 31.65C207.256 31.65 207.619 31.5033 207.899 31.21C207.992 31.1167 208.069 31.0133 208.129 30.9C208.196 30.7867 208.246 30.6533 208.279 30.5H208.799C208.766 30.7133 208.699 30.91 208.599 31.09C208.499 31.2633 208.379 31.4167 208.239 31.55C208.059 31.73 207.846 31.8733 207.599 31.98C207.359 32.08 207.096 32.13 206.809 32.13C206.449 32.13 206.139 32.0633 205.879 31.93C205.619 31.7967 205.399 31.6267 205.219 31.42C205.012 31.18 204.852 30.9 204.739 30.58C204.632 30.2533 204.579 29.9 204.579 29.52C204.579 29.2 204.612 28.89 204.679 28.59C204.746 28.29 204.876 28.0067 205.069 27.74C205.496 27.16 206.062 26.87 206.769 26.87C207.109 26.87 207.409 26.9367 207.669 27.07C207.936 27.2033 208.159 27.3833 208.339 27.61C208.526 27.83 208.666 28.0867 208.759 28.38C208.859 28.6733 208.909 28.9767 208.909 29.29ZM208.399 29.16C208.392 28.92 208.352 28.6933 208.279 28.48C208.206 28.26 208.099 28.0667 207.959 27.9C207.819 27.7267 207.649 27.59 207.449 27.49C207.249 27.39 207.022 27.34 206.769 27.34C206.509 27.34 206.276 27.39 206.069 27.49C205.862 27.5833 205.686 27.7133 205.539 27.88C205.399 28.0467 205.289 28.24 205.209 28.46C205.129 28.68 205.089 28.9133 205.089 29.16H208.399ZM218.048 30.08C218.048 30.3933 217.995 30.6567 217.888 30.87C217.788 31.0833 217.655 31.2733 217.488 31.44C217.248 31.6733 216.955 31.8467 216.608 31.96C216.268 32.0733 215.892 32.13 215.478 32.13C215.072 32.13 214.698 32.0667 214.358 31.94C214.018 31.8133 213.732 31.6233 213.498 31.37C213.325 31.1833 213.182 30.97 213.068 30.73C212.955 30.49 212.885 30.2333 212.858 29.96H213.398C213.425 30.1733 213.485 30.3733 213.578 30.56C213.672 30.7467 213.785 30.91 213.918 31.05C214.112 31.2433 214.345 31.39 214.618 31.49C214.892 31.5833 215.178 31.63 215.478 31.63C215.785 31.63 216.082 31.59 216.368 31.51C216.655 31.4233 216.895 31.2867 217.088 31.1C217.215 30.98 217.315 30.8367 217.388 30.67C217.468 30.5033 217.508 30.3067 217.508 30.08C217.508 29.74 217.385 29.44 217.138 29.18C216.892 28.9133 216.555 28.7533 216.128 28.7L214.808 28.53C214.562 28.4967 214.332 28.4367 214.118 28.35C213.905 28.2633 213.718 28.1467 213.558 28C213.405 27.8467 213.285 27.6667 213.198 27.46C213.112 27.2533 213.068 27.0133 213.068 26.74C213.068 26.44 213.125 26.1833 213.238 25.97C213.358 25.7567 213.508 25.5667 213.688 25.4C213.908 25.2 214.172 25.0467 214.478 24.94C214.785 24.8333 215.105 24.78 215.438 24.78C215.818 24.78 216.182 24.8533 216.528 25C216.882 25.14 217.158 25.3267 217.358 25.56C217.512 25.7333 217.635 25.92 217.728 26.12C217.822 26.3133 217.878 26.5367 217.898 26.79H217.368C217.342 26.61 217.298 26.45 217.238 26.31C217.178 26.1633 217.092 26.0233 216.978 25.89C216.825 25.6967 216.612 25.5467 216.338 25.44C216.065 25.3333 215.765 25.28 215.438 25.28C215.185 25.28 214.938 25.3133 214.698 25.38C214.465 25.4467 214.262 25.5567 214.088 25.71C213.955 25.83 213.842 25.9733 213.748 26.14C213.655 26.3067 213.608 26.5067 213.608 26.74C213.608 26.9467 213.642 27.1267 213.708 27.28C213.782 27.4267 213.875 27.55 213.988 27.65C214.102 27.7433 214.235 27.8167 214.388 27.87C214.542 27.9233 214.698 27.96 214.858 27.98L216.198 28.15C216.472 28.1833 216.722 28.2567 216.948 28.37C217.175 28.4833 217.368 28.6267 217.528 28.8C217.695 28.9667 217.822 29.16 217.908 29.38C218.002 29.5933 218.048 29.8267 218.048 30.08ZM223.869 29.29C223.869 29.35 223.866 29.4067 223.859 29.46C223.859 29.5067 223.859 29.56 223.859 29.62H220.039C220.046 29.9133 220.092 30.19 220.179 30.45C220.272 30.7033 220.399 30.9267 220.559 31.12C220.699 31.2867 220.866 31.4167 221.059 31.51C221.259 31.6033 221.496 31.65 221.769 31.65C222.216 31.65 222.579 31.5033 222.859 31.21C222.952 31.1167 223.029 31.0133 223.089 30.9C223.156 30.7867 223.206 30.6533 223.239 30.5H223.759C223.726 30.7133 223.659 30.91 223.559 31.09C223.459 31.2633 223.339 31.4167 223.199 31.55C223.019 31.73 222.806 31.8733 222.559 31.98C222.319 32.08 222.056 32.13 221.769 32.13C221.409 32.13 221.099 32.0633 220.839 31.93C220.579 31.7967 220.359 31.6267 220.179 31.42C219.972 31.18 219.812 30.9 219.699 30.58C219.592 30.2533 219.539 29.9 219.539 29.52C219.539 29.2 219.572 28.89 219.639 28.59C219.706 28.29 219.836 28.0067 220.029 27.74C220.456 27.16 221.022 26.87 221.729 26.87C222.069 26.87 222.369 26.9367 222.629 27.07C222.896 27.2033 223.119 27.3833 223.299 27.61C223.486 27.83 223.626 28.0867 223.719 28.38C223.819 28.6733 223.869 28.9767 223.869 29.29ZM223.359 29.16C223.352 28.92 223.312 28.6933 223.239 28.48C223.166 28.26 223.059 28.0667 222.919 27.9C222.779 27.7267 222.609 27.59 222.409 27.49C222.209 27.39 221.982 27.34 221.729 27.34C221.469 27.34 221.236 27.39 221.029 27.49C220.822 27.5833 220.646 27.7133 220.499 27.88C220.359 28.0467 220.249 28.24 220.169 28.46C220.089 28.68 220.049 28.9133 220.049 29.16H223.359ZM229.9 32C229.84 32.0133 229.8 32.02 229.78 32.02C229.76 32.0267 229.72 32.03 229.66 32.03C229.506 32.03 229.376 32.0033 229.27 31.95C229.17 31.8967 229.09 31.8267 229.03 31.74C228.97 31.6467 228.926 31.5433 228.9 31.43C228.88 31.31 228.87 31.1833 228.87 31.05C228.803 31.23 228.706 31.3867 228.58 31.52C228.46 31.6533 228.32 31.7667 228.16 31.86C228 31.9467 227.826 32.0133 227.64 32.06C227.453 32.1067 227.263 32.13 227.07 32.13C226.83 32.13 226.603 32.0933 226.39 32.02C226.183 31.9533 226 31.8533 225.84 31.72C225.686 31.5867 225.566 31.4267 225.48 31.24C225.393 31.0467 225.35 30.83 225.35 30.59C225.35 30.1433 225.503 29.7933 225.81 29.54C226.123 29.28 226.53 29.1333 227.03 29.1L228.87 28.97V28.48C228.87 28.0667 228.743 27.7733 228.49 27.6C228.243 27.4267 227.93 27.34 227.55 27.34C227.15 27.34 226.816 27.43 226.55 27.61C226.283 27.79 226.136 28.0667 226.11 28.44H225.61C225.643 27.9333 225.84 27.5467 226.2 27.28C226.56 27.0067 227.01 26.87 227.55 26.87C227.723 26.87 227.893 26.8867 228.06 26.92C228.233 26.9467 228.396 26.9967 228.55 27.07C228.703 27.1433 228.84 27.24 228.96 27.36C229.08 27.4733 229.173 27.6167 229.24 27.79C229.3 27.9433 229.336 28.1 229.35 28.26C229.363 28.42 229.37 28.5833 229.37 28.75V31.03C229.37 31.2033 229.39 31.3367 229.43 31.43C229.476 31.5233 229.586 31.57 229.76 31.57C229.82 31.57 229.866 31.5667 229.9 31.56V32ZM228.87 29.43L227.08 29.54C226.706 29.5667 226.41 29.6733 226.19 29.86C225.97 30.04 225.86 30.2833 225.86 30.59C225.86 30.95 225.976 31.22 226.21 31.4C226.45 31.58 226.75 31.67 227.11 31.67C227.423 31.67 227.69 31.6133 227.91 31.5C228.136 31.38 228.32 31.2267 228.46 31.04C228.6 30.8533 228.703 30.6433 228.77 30.41C228.836 30.17 228.87 29.93 228.87 29.69V29.43ZM234.345 27.48C234.265 27.46 234.182 27.4467 234.095 27.44C234.015 27.4333 233.935 27.43 233.855 27.43C233.542 27.43 233.282 27.4933 233.075 27.62C232.875 27.7467 232.715 27.9133 232.595 28.12C232.475 28.3267 232.388 28.56 232.335 28.82C232.288 29.08 232.265 29.34 232.265 29.6V32H231.765V27H232.205L232.265 28.01C232.378 27.6633 232.582 27.4 232.875 27.22C233.175 27.04 233.502 26.95 233.855 26.95C233.935 26.95 234.015 26.9533 234.095 26.96C234.182 26.96 234.265 26.9667 234.345 26.98V27.48ZM239.664 30.42C239.63 30.66 239.56 30.8867 239.454 31.1C239.347 31.3067 239.207 31.4867 239.034 31.64C238.867 31.7933 238.67 31.9133 238.444 32C238.217 32.0867 237.974 32.13 237.714 32.13C237.4 32.13 237.12 32.0767 236.874 31.97C236.627 31.8567 236.417 31.7133 236.244 31.54C235.984 31.28 235.8 30.9833 235.694 30.65C235.594 30.31 235.544 29.9267 235.544 29.5C235.544 29.0733 235.594 28.6933 235.694 28.36C235.8 28.02 235.984 27.72 236.244 27.46C236.417 27.2867 236.627 27.1467 236.874 27.04C237.12 26.9267 237.4 26.87 237.714 26.87C237.974 26.87 238.214 26.91 238.434 26.99C238.66 27.07 238.857 27.1867 239.024 27.34C239.19 27.4867 239.327 27.6633 239.434 27.87C239.547 28.0767 239.617 28.3067 239.644 28.56H239.124C239.07 28.2133 238.917 27.9267 238.664 27.7C238.41 27.4733 238.094 27.36 237.714 27.36C237.474 27.36 237.26 27.4 237.074 27.48C236.894 27.5533 236.737 27.6567 236.604 27.79C236.377 28.0233 236.227 28.2867 236.154 28.58C236.087 28.8667 236.054 29.1733 236.054 29.5C236.054 29.8267 236.087 30.1367 236.154 30.43C236.227 30.7233 236.377 30.9867 236.604 31.22C236.87 31.5 237.24 31.64 237.714 31.64C238.1 31.64 238.417 31.5233 238.664 31.29C238.917 31.05 239.074 30.76 239.134 30.42H239.664ZM244.941 32V28.73C244.941 28.29 244.841 27.95 244.641 27.71C244.441 27.4633 244.111 27.34 243.651 27.34C243.344 27.34 243.084 27.4033 242.871 27.53C242.657 27.65 242.484 27.8133 242.351 28.02C242.224 28.22 242.131 28.45 242.071 28.71C242.017 28.9633 241.991 29.2267 241.991 29.5V32H241.491V24.78H241.991V27.92C242.131 27.6 242.357 27.3467 242.671 27.16C242.991 26.9667 243.327 26.87 243.681 26.87C244.261 26.87 244.697 27.0333 244.991 27.36C245.291 27.6867 245.441 28.1333 245.441 28.7V32H244.941Z" fill="white"/>
<path d="M261 24L255 30" stroke="white" stroke-linecap="round" stroke-linejoin="round"/>
<path d="M255 24L261 30" stroke="white" stroke-linecap="round" stroke-linejoin="round"/>
<rect x="80" y="43" width="208" height="25" rx="12.5" fill="#1D183D"/>
<path d="M41.625 56.5H29.375" stroke="#504CFF" stroke-width="2" stroke-linecap="round" stroke-linejoin="round"/>
<path d="M35.5 62.625L29.375 56.5L35.5 50.375" stroke="#504CFF" stroke-width="2" stroke-linecap="round" stroke-linejoin="round"/>
<g opacity="0.3">
<path d="M56.375 56.5H68.625" stroke="#504CFF" stroke-width="2" stroke-linecap="round" stroke-linejoin="round"/>
<path d="M62.5 50.375L68.625 56.5L62.5 62.625" stroke="#504CFF" stroke-width="2" stroke-linecap="round" stroke-linejoin="round"/>
</g>
<path d="M112.112 57.6C112.112 57.7547 112.083 57.8933 112.024 58.016C111.971 58.144 111.899 58.2533 111.808 58.344C111.637 58.52 111.411 58.6427 111.128 58.712C110.845 58.7813 110.544 58.816 110.224 58.816C109.92 58.816 109.637 58.7813 109.376 58.712C109.12 58.6427 108.907 58.5227 108.736 58.352C108.645 58.2613 108.576 58.1573 108.528 58.04C108.48 57.9227 108.456 57.7867 108.456 57.632C108.456 57.44 108.509 57.2587 108.616 57.088C108.723 56.9173 108.869 56.7867 109.056 56.696C108.917 56.6533 108.797 56.568 108.696 56.44C108.6 56.312 108.552 56.1787 108.552 56.04C108.552 55.8693 108.592 55.7227 108.672 55.6C108.757 55.4773 108.877 55.3707 109.032 55.28C108.909 55.1573 108.811 55.016 108.736 54.856C108.667 54.6907 108.632 54.504 108.632 54.296C108.632 54.0773 108.669 53.8827 108.744 53.712C108.824 53.5413 108.931 53.3947 109.064 53.272C109.197 53.1493 109.355 53.056 109.536 52.992C109.723 52.928 109.92 52.896 110.128 52.896C110.48 52.896 110.792 52.9867 111.064 53.168C111.117 52.9973 111.219 52.864 111.368 52.768C111.523 52.672 111.691 52.624 111.872 52.624C111.899 52.624 111.923 52.6267 111.944 52.632C111.971 52.6373 111.997 52.64 112.024 52.64V52.984C111.997 52.984 111.971 52.9813 111.944 52.976C111.923 52.9707 111.899 52.968 111.872 52.968C111.728 52.968 111.605 53.0053 111.504 53.08C111.408 53.1547 111.347 53.2613 111.32 53.4C111.421 53.5173 111.499 53.6507 111.552 53.8C111.611 53.9493 111.64 54.1147 111.64 54.296C111.64 54.5093 111.6 54.704 111.52 54.88C111.44 55.0507 111.331 55.1947 111.192 55.312C111.059 55.4293 110.899 55.52 110.712 55.584C110.531 55.648 110.336 55.68 110.128 55.68C109.829 55.68 109.563 55.6187 109.328 55.496C109.221 55.5387 109.128 55.6027 109.048 55.688C108.968 55.768 108.928 55.8693 108.928 55.992C108.928 56.088 108.955 56.168 109.008 56.232C109.061 56.2907 109.128 56.336 109.208 56.368C109.283 56.3947 109.371 56.4133 109.472 56.424C109.579 56.4293 109.669 56.432 109.744 56.432H110.616C110.872 56.432 111.099 56.464 111.296 56.528C111.499 56.592 111.664 56.6907 111.792 56.824C111.888 56.92 111.965 57.0293 112.024 57.152C112.083 57.2747 112.112 57.424 112.112 57.6ZM111.24 54.296C111.24 54.136 111.211 53.992 111.152 53.864C111.099 53.736 111.021 53.6267 110.92 53.536C110.819 53.4453 110.699 53.376 110.56 53.328C110.427 53.28 110.283 53.256 110.128 53.256C109.973 53.256 109.827 53.28 109.688 53.328C109.555 53.376 109.437 53.4453 109.336 53.536C109.24 53.6267 109.163 53.736 109.104 53.864C109.051 53.992 109.024 54.136 109.024 54.296C109.024 54.616 109.131 54.8667 109.344 55.048C109.557 55.2293 109.819 55.32 110.128 55.32C110.283 55.32 110.427 55.296 110.56 55.248C110.699 55.2 110.819 55.1333 110.92 55.048C111.021 54.9573 111.099 54.8507 111.152 54.728C111.211 54.6 111.24 54.456 111.24 54.296ZM111.712 57.6C111.712 57.488 111.693 57.392 111.656 57.312C111.624 57.2373 111.579 57.168 111.52 57.104C111.429 57.008 111.304 56.936 111.144 56.888C110.989 56.8347 110.792 56.808 110.552 56.808H109.496C109.325 56.8507 109.171 56.9387 109.032 57.072C108.899 57.2053 108.832 57.392 108.832 57.632C108.832 57.7387 108.851 57.8347 108.888 57.92C108.931 58.0053 108.984 58.0773 109.048 58.136C109.192 58.2747 109.373 58.3627 109.592 58.4C109.816 58.4373 110.029 58.456 110.232 58.456C110.333 58.456 110.44 58.4507 110.552 58.44C110.669 58.4347 110.787 58.4187 110.904 58.392C111.021 58.3707 111.131 58.336 111.232 58.288C111.339 58.24 111.429 58.1787 111.504 58.104C111.563 58.0453 111.611 57.9733 111.648 57.888C111.691 57.8027 111.712 57.7067 111.712 57.6ZM116.186 55C116.186 55.3413 116.143 55.6453 116.058 55.912C115.972 56.1787 115.826 56.416 115.618 56.624C115.479 56.7627 115.311 56.8773 115.114 56.968C114.922 57.0587 114.7 57.104 114.45 57.104C114.199 57.104 113.975 57.0587 113.778 56.968C113.586 56.8773 113.42 56.7627 113.282 56.624C113.074 56.416 112.927 56.1787 112.842 55.912C112.756 55.6453 112.714 55.3413 112.714 55C112.714 54.6587 112.756 54.3547 112.842 54.088C112.927 53.8213 113.074 53.584 113.282 53.376C113.42 53.2373 113.586 53.1227 113.778 53.032C113.975 52.9413 114.199 52.896 114.45 52.896C114.7 52.896 114.922 52.9413 115.114 53.032C115.311 53.1227 115.479 53.2373 115.618 53.376C115.826 53.584 115.972 53.8213 116.058 54.088C116.143 54.3547 116.186 54.6587 116.186 55ZM115.778 55C115.778 54.7387 115.748 54.4933 115.69 54.264C115.631 54.0347 115.511 53.8267 115.33 53.64C115.223 53.5333 115.098 53.448 114.954 53.384C114.81 53.32 114.642 53.288 114.45 53.288C114.258 53.288 114.09 53.32 113.946 53.384C113.802 53.448 113.676 53.5333 113.57 53.64C113.388 53.8267 113.268 54.0347 113.21 54.264C113.151 54.4933 113.122 54.7387 113.122 55C113.122 55.2613 113.151 55.5067 113.21 55.736C113.268 55.9653 113.388 56.1733 113.57 56.36C113.676 56.4667 113.802 56.552 113.946 56.616C114.09 56.68 114.258 56.712 114.45 56.712C114.642 56.712 114.81 56.68 114.954 56.616C115.098 56.552 115.223 56.4667 115.33 56.36C115.511 56.1733 115.631 55.9653 115.69 55.736C115.748 55.5067 115.778 55.2613 115.778 55ZM120.553 55C120.553 55.3413 120.51 55.6453 120.425 55.912C120.339 56.1787 120.193 56.416 119.985 56.624C119.846 56.7627 119.678 56.8773 119.481 56.968C119.289 57.0587 119.067 57.104 118.817 57.104C118.566 57.104 118.342 57.0587 118.145 56.968C117.953 56.8773 117.787 56.7627 117.649 56.624C117.441 56.416 117.294 56.1787 117.209 55.912C117.123 55.6453 117.081 55.3413 117.081 55C117.081 54.6587 117.123 54.3547 117.209 54.088C117.294 53.8213 117.441 53.584 117.649 53.376C117.787 53.2373 117.953 53.1227 118.145 53.032C118.342 52.9413 118.566 52.896 118.817 52.896C119.067 52.896 119.289 52.9413 119.481 53.032C119.678 53.1227 119.846 53.2373 119.985 53.376C120.193 53.584 120.339 53.8213 120.425 54.088C120.51 54.3547 120.553 54.6587 120.553 55ZM120.145 55C120.145 54.7387 120.115 54.4933 120.057 54.264C119.998 54.0347 119.878 53.8267 119.697 53.64C119.59 53.5333 119.465 53.448 119.321 53.384C119.177 53.32 119.009 53.288 118.817 53.288C118.625 53.288 118.457 53.32 118.313 53.384C118.169 53.448 118.043 53.5333 117.937 53.64C117.755 53.8267 117.635 54.0347 117.577 54.264C117.518 54.4933 117.489 54.7387 117.489 55C117.489 55.2613 117.518 55.5067 117.577 55.736C117.635 55.9653 117.755 56.1733 117.937 56.36C118.043 56.4667 118.169 56.552 118.313 56.616C118.457 56.68 118.625 56.712 118.817 56.712C119.009 56.712 119.177 56.68 119.321 56.616C119.465 56.552 119.59 56.4667 119.697 56.36C119.878 56.1733 119.998 55.9653 120.057 55.736C120.115 55.5067 120.145 55.2613 120.145 55ZM125.112 57.6C125.112 57.7547 125.083 57.8933 125.024 58.016C124.971 58.144 124.899 58.2533 124.808 58.344C124.637 58.52 124.411 58.6427 124.128 58.712C123.845 58.7813 123.544 58.816 123.224 58.816C122.92 58.816 122.637 58.7813 122.376 58.712C122.12 58.6427 121.907 58.5227 121.736 58.352C121.645 58.2613 121.576 58.1573 121.528 58.04C121.48 57.9227 121.456 57.7867 121.456 57.632C121.456 57.44 121.509 57.2587 121.616 57.088C121.723 56.9173 121.869 56.7867 122.056 56.696C121.917 56.6533 121.797 56.568 121.696 56.44C121.6 56.312 121.552 56.1787 121.552 56.04C121.552 55.8693 121.592 55.7227 121.672 55.6C121.757 55.4773 121.877 55.3707 122.032 55.28C121.909 55.1573 121.811 55.016 121.736 54.856C121.667 54.6907 121.632 54.504 121.632 54.296C121.632 54.0773 121.669 53.8827 121.744 53.712C121.824 53.5413 121.931 53.3947 122.064 53.272C122.197 53.1493 122.355 53.056 122.536 52.992C122.723 52.928 122.92 52.896 123.128 52.896C123.48 52.896 123.792 52.9867 124.064 53.168C124.117 52.9973 124.219 52.864 124.368 52.768C124.523 52.672 124.691 52.624 124.872 52.624C124.899 52.624 124.923 52.6267 124.944 52.632C124.971 52.6373 124.997 52.64 125.024 52.64V52.984C124.997 52.984 124.971 52.9813 124.944 52.976C124.923 52.9707 124.899 52.968 124.872 52.968C124.728 52.968 124.605 53.0053 124.504 53.08C124.408 53.1547 124.347 53.2613 124.32 53.4C124.421 53.5173 124.499 53.6507 124.552 53.8C124.611 53.9493 124.64 54.1147 124.64 54.296C124.64 54.5093 124.6 54.704 124.52 54.88C124.44 55.0507 124.331 55.1947 124.192 55.312C124.059 55.4293 123.899 55.52 123.712 55.584C123.531 55.648 123.336 55.68 123.128 55.68C122.829 55.68 122.563 55.6187 122.328 55.496C122.221 55.5387 122.128 55.6027 122.048 55.688C121.968 55.768 121.928 55.8693 121.928 55.992C121.928 56.088 121.955 56.168 122.008 56.232C122.061 56.2907 122.128 56.336 122.208 56.368C122.283 56.3947 122.371 56.4133 122.472 56.424C122.579 56.4293 122.669 56.432 122.744 56.432H123.616C123.872 56.432 124.099 56.464 124.296 56.528C124.499 56.592 124.664 56.6907 124.792 56.824C124.888 56.92 124.965 57.0293 125.024 57.152C125.083 57.2747 125.112 57.424 125.112 57.6ZM124.24 54.296C124.24 54.136 124.211 53.992 124.152 53.864C124.099 53.736 124.021 53.6267 123.92 53.536C123.819 53.4453 123.699 53.376 123.56 53.328C123.427 53.28 123.283 53.256 123.128 53.256C122.973 53.256 122.827 53.28 122.688 53.328C122.555 53.376 122.437 53.4453 122.336 53.536C122.24 53.6267 122.163 53.736 122.104 53.864C122.051 53.992 122.024 54.136 122.024 54.296C122.024 54.616 122.131 54.8667 122.344 55.048C122.557 55.2293 122.819 55.32 123.128 55.32C123.283 55.32 123.427 55.296 123.56 55.248C123.699 55.2 123.819 55.1333 123.92 55.048C124.021 54.9573 124.099 54.8507 124.152 54.728C124.211 54.6 124.24 54.456 124.24 54.296ZM124.712 57.6C124.712 57.488 124.693 57.392 124.656 57.312C124.624 57.2373 124.579 57.168 124.52 57.104C124.429 57.008 124.304 56.936 124.144 56.888C123.989 56.8347 123.792 56.808 123.552 56.808H122.496C122.325 56.8507 122.171 56.9387 122.032 57.072C121.899 57.2053 121.832 57.392 121.832 57.632C121.832 57.7387 121.851 57.8347 121.888 57.92C121.931 58.0053 121.984 58.0773 122.048 58.136C122.192 58.2747 122.373 58.3627 122.592 58.4C122.816 58.4373 123.029 58.456 123.232 58.456C123.333 58.456 123.44 58.4507 123.552 58.44C123.669 58.4347 123.787 58.4187 123.904 58.392C124.021 58.3707 124.131 58.336 124.232 58.288C124.339 58.24 124.429 58.1787 124.504 58.104C124.563 58.0453 124.611 57.9733 124.648 57.888C124.691 57.8027 124.712 57.7067 124.712 57.6ZM127.194 57C127.151 57.0107 127.1 57.0213 127.042 57.032C126.988 57.0427 126.919 57.048 126.834 57.048C126.578 57.048 126.38 56.9813 126.242 56.848C126.103 56.7093 126.034 56.4933 126.034 56.2V51.224H126.434V56.184C126.434 56.3227 126.46 56.4373 126.514 56.528C126.567 56.6187 126.679 56.664 126.85 56.664C126.93 56.664 126.991 56.664 127.034 56.664C127.082 56.664 127.135 56.6587 127.194 56.648V57ZM131.412 54.832C131.412 54.88 131.409 54.9253 131.404 54.968C131.404 55.0053 131.404 55.048 131.404 55.096H128.348C128.353 55.3307 128.391 55.552 128.46 55.76C128.535 55.9627 128.636 56.1413 128.764 56.296C128.876 56.4293 129.009 56.5333 129.164 56.608C129.324 56.6827 129.513 56.72 129.732 56.72C130.089 56.72 130.38 56.6027 130.604 56.368C130.679 56.2933 130.74 56.2107 130.788 56.12C130.841 56.0293 130.881 55.9227 130.908 55.8H131.324C131.297 55.9707 131.244 56.128 131.164 56.272C131.084 56.4107 130.988 56.5333 130.876 56.64C130.732 56.784 130.561 56.8987 130.364 56.984C130.172 57.064 129.961 57.104 129.732 57.104C129.444 57.104 129.196 57.0507 128.988 56.944C128.78 56.8373 128.604 56.7013 128.46 56.536C128.295 56.344 128.167 56.12 128.076 55.864C127.991 55.6027 127.948 55.32 127.948 55.016C127.948 54.76 127.975 54.512 128.028 54.272C128.081 54.032 128.185 53.8053 128.34 53.592C128.681 53.128 129.135 52.896 129.7 52.896C129.972 52.896 130.212 52.9493 130.42 53.056C130.633 53.1627 130.812 53.3067 130.956 53.488C131.105 53.664 131.217 53.8693 131.292 54.104C131.372 54.3387 131.412 54.5813 131.412 54.832ZM131.004 54.728C130.999 54.536 130.967 54.3547 130.908 54.184C130.849 54.008 130.764 53.8533 130.652 53.72C130.54 53.5813 130.404 53.472 130.244 53.392C130.084 53.312 129.903 53.272 129.7 53.272C129.492 53.272 129.305 53.312 129.14 53.392C128.975 53.4667 128.833 53.5707 128.716 53.704C128.604 53.8373 128.516 53.992 128.452 54.168C128.388 54.344 128.356 54.5307 128.356 54.728H131.004ZM132.517 57V56.28H133.221V57H132.517ZM137.666 55.736C137.639 55.928 137.583 56.1093 137.498 56.28C137.413 56.4453 137.301 56.5893 137.162 56.712C137.029 56.8347 136.871 56.9307 136.69 57C136.509 57.0693 136.314 57.104 136.106 57.104C135.855 57.104 135.631 57.0613 135.434 56.976C135.237 56.8853 135.069 56.7707 134.93 56.632C134.722 56.424 134.575 56.1867 134.49 55.92C134.41 55.648 134.37 55.3413 134.37 55C134.37 54.6587 134.41 54.3547 134.49 54.088C134.575 53.816 134.722 53.576 134.93 53.368C135.069 53.2293 135.237 53.1173 135.434 53.032C135.631 52.9413 135.855 52.896 136.106 52.896C136.314 52.896 136.506 52.928 136.682 52.992C136.863 53.056 137.021 53.1493 137.154 53.272C137.287 53.3893 137.397 53.5307 137.482 53.696C137.573 53.8613 137.629 54.0453 137.65 54.248H137.234C137.191 53.9707 137.069 53.7413 136.866 53.56C136.663 53.3787 136.41 53.288 136.106 53.288C135.914 53.288 135.743 53.32 135.594 53.384C135.45 53.4427 135.325 53.5253 135.218 53.632C135.037 53.8187 134.917 54.0293 134.858 54.264C134.805 54.4933 134.778 54.7387 134.778 55C134.778 55.2613 134.805 55.5093 134.858 55.744C134.917 55.9787 135.037 56.1893 135.218 56.376C135.431 56.6 135.727 56.712 136.106 56.712C136.415 56.712 136.669 56.6187 136.866 56.432C137.069 56.24 137.194 56.008 137.242 55.736H137.666ZM141.936 55C141.936 55.3413 141.893 55.6453 141.808 55.912C141.722 56.1787 141.576 56.416 141.368 56.624C141.229 56.7627 141.061 56.8773 140.864 56.968C140.672 57.0587 140.45 57.104 140.2 57.104C139.949 57.104 139.725 57.0587 139.528 56.968C139.336 56.8773 139.17 56.7627 139.032 56.624C138.824 56.416 138.677 56.1787 138.592 55.912C138.506 55.6453 138.464 55.3413 138.464 55C138.464 54.6587 138.506 54.3547 138.592 54.088C138.677 53.8213 138.824 53.584 139.032 53.376C139.17 53.2373 139.336 53.1227 139.528 53.032C139.725 52.9413 139.949 52.896 140.2 52.896C140.45 52.896 140.672 52.9413 140.864 53.032C141.061 53.1227 141.229 53.2373 141.368 53.376C141.576 53.584 141.722 53.8213 141.808 54.088C141.893 54.3547 141.936 54.6587 141.936 55ZM141.528 55C141.528 54.7387 141.498 54.4933 141.44 54.264C141.381 54.0347 141.261 53.8267 141.08 53.64C140.973 53.5333 140.848 53.448 140.704 53.384C140.56 53.32 140.392 53.288 140.2 53.288C140.008 53.288 139.84 53.32 139.696 53.384C139.552 53.448 139.426 53.5333 139.32 53.64C139.138 53.8267 139.018 54.0347 138.96 54.264C138.901 54.4933 138.872 54.7387 138.872 55C138.872 55.2613 138.901 55.5067 138.96 55.736C139.018 55.9653 139.138 56.1733 139.32 56.36C139.426 56.4667 139.552 56.552 139.696 56.616C139.84 56.68 140.008 56.712 140.2 56.712C140.392 56.712 140.56 56.68 140.704 56.616C140.848 56.552 140.973 56.4667 141.08 56.36C141.261 56.1733 141.381 55.9653 141.44 55.736C141.498 55.5067 141.528 55.2613 141.528 55ZM148.271 57V54.384C148.271 54.032 148.199 53.76 148.055 53.568C147.916 53.3707 147.671 53.272 147.319 53.272C147.164 53.272 147.028 53.296 146.911 53.344C146.799 53.392 146.697 53.4587 146.607 53.544C146.452 53.6933 146.335 53.8693 146.255 54.072C146.175 54.2747 146.135 54.496 146.135 54.736V57H145.727V54.384C145.727 54.032 145.655 53.76 145.511 53.568C145.367 53.3707 145.119 53.272 144.767 53.272C144.612 53.272 144.476 53.296 144.359 53.344C144.247 53.392 144.145 53.4587 144.055 53.544C143.873 53.7147 143.748 53.928 143.679 54.184C143.609 54.44 143.575 54.712 143.575 55V57H143.175V53H143.527L143.575 53.688C143.681 53.4587 143.839 53.2693 144.047 53.12C144.255 52.9707 144.503 52.896 144.791 52.896C145.143 52.896 145.42 52.976 145.623 53.136C145.831 53.2907 145.975 53.4987 146.055 53.76C146.161 53.5093 146.319 53.304 146.527 53.144C146.74 52.9787 147.012 52.896 147.343 52.896C147.577 52.896 147.777 52.9333 147.943 53.008C148.113 53.0773 148.252 53.1787 148.359 53.312C148.465 53.44 148.543 53.5947 148.591 53.776C148.644 53.952 148.671 54.1467 148.671 54.36V57H148.271Z" fill="white"/>
<path d="M149.951 57.104H149.583L152.087 51.224H152.455L149.951 57.104ZM156.203 55.888C156.203 56.1707 156.112 56.416 155.931 56.624C155.787 56.784 155.6 56.904 155.371 56.984C155.147 57.064 154.901 57.104 154.635 57.104C154.363 57.104 154.115 57.0613 153.891 56.976C153.667 56.8907 153.477 56.7627 153.323 56.592C153.211 56.464 153.128 56.3387 153.075 56.216C153.027 56.0933 152.997 55.9493 152.987 55.784H153.395C153.416 56.0187 153.515 56.224 153.691 56.4C153.808 56.512 153.947 56.5947 154.107 56.648C154.267 56.696 154.443 56.72 154.635 56.72C154.843 56.72 155.027 56.696 155.187 56.648C155.347 56.6 155.477 56.5253 155.579 56.424C155.653 56.3493 155.707 56.2747 155.739 56.2C155.776 56.1253 155.795 56.0293 155.795 55.912C155.795 55.7307 155.731 55.5733 155.603 55.44C155.48 55.3013 155.299 55.216 155.059 55.184L154.283 55.08C154.117 55.0587 153.952 55.0187 153.787 54.96C153.627 54.9013 153.491 54.808 153.379 54.68C153.229 54.504 153.155 54.2933 153.155 54.048C153.155 53.888 153.184 53.744 153.243 53.616C153.307 53.4827 153.392 53.368 153.499 53.272C153.643 53.1387 153.808 53.0427 153.995 52.984C154.187 52.9253 154.387 52.896 154.595 52.896C154.835 52.896 155.061 52.936 155.275 53.016C155.488 53.0907 155.664 53.208 155.803 53.368C155.893 53.4747 155.965 53.592 156.019 53.72C156.072 53.848 156.101 53.976 156.107 54.104H155.707C155.696 54.04 155.675 53.9627 155.643 53.872C155.616 53.7813 155.571 53.6987 155.507 53.624C155.416 53.5173 155.293 53.432 155.139 53.368C154.984 53.304 154.803 53.272 154.595 53.272C154.285 53.272 154.045 53.3333 153.875 53.456C153.667 53.6053 153.563 53.7893 153.563 54.008C153.563 54.1787 153.616 54.3227 153.723 54.44C153.829 54.5573 154.035 54.6373 154.339 54.68L155.099 54.784C155.285 54.8107 155.448 54.8613 155.587 54.936C155.725 55.0053 155.84 55.0907 155.931 55.192C156.021 55.2933 156.088 55.4053 156.131 55.528C156.179 55.6453 156.203 55.7653 156.203 55.888ZM160.56 54.832C160.56 54.88 160.558 54.9253 160.552 54.968C160.552 55.0053 160.552 55.048 160.552 55.096H157.496C157.502 55.3307 157.539 55.552 157.608 55.76C157.683 55.9627 157.784 56.1413 157.912 56.296C158.024 56.4293 158.158 56.5333 158.312 56.608C158.472 56.6827 158.662 56.72 158.88 56.72C159.238 56.72 159.528 56.6027 159.752 56.368C159.827 56.2933 159.888 56.2107 159.936 56.12C159.99 56.0293 160.03 55.9227 160.056 55.8H160.472C160.446 55.9707 160.392 56.128 160.312 56.272C160.232 56.4107 160.136 56.5333 160.024 56.64C159.88 56.784 159.71 56.8987 159.512 56.984C159.32 57.064 159.11 57.104 158.88 57.104C158.592 57.104 158.344 57.0507 158.136 56.944C157.928 56.8373 157.752 56.7013 157.608 56.536C157.443 56.344 157.315 56.12 157.224 55.864C157.139 55.6027 157.096 55.32 157.096 55.016C157.096 54.76 157.123 54.512 157.176 54.272C157.23 54.032 157.334 53.8053 157.488 53.592C157.83 53.128 158.283 52.896 158.848 52.896C159.12 52.896 159.36 52.9493 159.568 53.056C159.782 53.1627 159.96 53.3067 160.104 53.488C160.254 53.664 160.366 53.8693 160.44 54.104C160.52 54.3387 160.56 54.5813 160.56 54.832ZM160.152 54.728C160.147 54.536 160.115 54.3547 160.056 54.184C159.998 54.008 159.912 53.8533 159.8 53.72C159.688 53.5813 159.552 53.472 159.392 53.392C159.232 53.312 159.051 53.272 158.848 53.272C158.64 53.272 158.454 53.312 158.288 53.392C158.123 53.4667 157.982 53.5707 157.864 53.704C157.752 53.8373 157.664 53.992 157.6 54.168C157.536 54.344 157.504 54.5307 157.504 54.728H160.152ZM165.065 57C165.017 57.0107 164.985 57.016 164.969 57.016C164.953 57.0213 164.921 57.024 164.873 57.024C164.75 57.024 164.646 57.0027 164.561 56.96C164.481 56.9173 164.417 56.8613 164.369 56.792C164.321 56.7173 164.286 56.6347 164.265 56.544C164.249 56.448 164.241 56.3467 164.241 56.24C164.188 56.384 164.11 56.5093 164.009 56.616C163.913 56.7227 163.801 56.8133 163.673 56.888C163.545 56.9573 163.406 57.0107 163.257 57.048C163.108 57.0853 162.956 57.104 162.801 57.104C162.609 57.104 162.428 57.0747 162.257 57.016C162.092 56.9627 161.945 56.8827 161.817 56.776C161.694 56.6693 161.598 56.5413 161.529 56.392C161.46 56.2373 161.425 56.064 161.425 55.872C161.425 55.5147 161.548 55.2347 161.793 55.032C162.044 54.824 162.369 54.7067 162.769 54.68L164.241 54.576V54.184C164.241 53.8533 164.14 53.6187 163.937 53.48C163.74 53.3413 163.489 53.272 163.185 53.272C162.865 53.272 162.598 53.344 162.385 53.488C162.172 53.632 162.054 53.8533 162.033 54.152H161.633C161.66 53.7467 161.817 53.4373 162.105 53.224C162.393 53.0053 162.753 52.896 163.185 52.896C163.324 52.896 163.46 52.9093 163.593 52.936C163.732 52.9573 163.862 52.9973 163.985 53.056C164.108 53.1147 164.217 53.192 164.313 53.288C164.409 53.3787 164.484 53.4933 164.537 53.632C164.585 53.7547 164.614 53.88 164.625 54.008C164.636 54.136 164.641 54.2667 164.641 54.4V56.224C164.641 56.3627 164.657 56.4693 164.689 56.544C164.726 56.6187 164.814 56.656 164.953 56.656C165.001 56.656 165.038 56.6533 165.065 56.648V57ZM164.241 54.944L162.809 55.032C162.51 55.0533 162.273 55.1387 162.097 55.288C161.921 55.432 161.833 55.6267 161.833 55.872C161.833 56.16 161.926 56.376 162.113 56.52C162.305 56.664 162.545 56.736 162.833 56.736C163.084 56.736 163.297 56.6907 163.473 56.6C163.654 56.504 163.801 56.3813 163.913 56.232C164.025 56.0827 164.108 55.9147 164.161 55.728C164.214 55.536 164.241 55.344 164.241 55.152V54.944ZM168.301 53.384C168.237 53.368 168.171 53.3573 168.101 53.352C168.037 53.3467 167.973 53.344 167.909 53.344C167.659 53.344 167.451 53.3947 167.285 53.496C167.125 53.5973 166.997 53.7307 166.901 53.896C166.805 54.0613 166.736 54.248 166.693 54.456C166.656 54.664 166.637 54.872 166.637 55.08V57H166.237V53H166.589L166.637 53.808C166.728 53.5307 166.891 53.32 167.125 53.176C167.365 53.032 167.627 52.96 167.909 52.96C167.973 52.96 168.037 52.9627 168.101 52.968C168.171 52.968 168.237 52.9733 168.301 52.984V53.384ZM172.236 55.736C172.21 55.928 172.154 56.1093 172.068 56.28C171.983 56.4453 171.871 56.5893 171.732 56.712C171.599 56.8347 171.442 56.9307 171.26 57C171.079 57.0693 170.884 57.104 170.676 57.104C170.426 57.104 170.202 57.0613 170.004 56.976C169.807 56.8853 169.639 56.7707 169.5 56.632C169.292 56.424 169.146 56.1867 169.06 55.92C168.98 55.648 168.94 55.3413 168.94 55C168.94 54.6587 168.98 54.3547 169.06 54.088C169.146 53.816 169.292 53.576 169.5 53.368C169.639 53.2293 169.807 53.1173 170.004 53.032C170.202 52.9413 170.426 52.896 170.676 52.896C170.884 52.896 171.076 52.928 171.252 52.992C171.434 53.056 171.591 53.1493 171.724 53.272C171.858 53.3893 171.967 53.5307 172.052 53.696C172.143 53.8613 172.199 54.0453 172.22 54.248H171.804C171.762 53.9707 171.639 53.7413 171.436 53.56C171.234 53.3787 170.98 53.288 170.676 53.288C170.484 53.288 170.314 53.32 170.164 53.384C170.02 53.4427 169.895 53.5253 169.788 53.632C169.607 53.8187 169.487 54.0293 169.428 54.264C169.375 54.4933 169.348 54.7387 169.348 55C169.348 55.2613 169.375 55.5093 169.428 55.744C169.487 55.9787 169.607 56.1893 169.788 56.376C170.002 56.6 170.298 56.712 170.676 56.712C170.986 56.712 171.239 56.6187 171.436 56.432C171.639 56.24 171.764 56.008 171.812 55.736H172.236ZM176.138 57V54.384C176.138 54.032 176.058 53.76 175.898 53.568C175.738 53.3707 175.474 53.272 175.106 53.272C174.861 53.272 174.653 53.3227 174.482 53.424C174.311 53.52 174.173 53.6507 174.066 53.816C173.965 53.976 173.89 54.16 173.842 54.368C173.799 54.5707 173.778 54.7813 173.778 55V57H173.378V51.224H173.778V53.736C173.89 53.48 174.071 53.2773 174.322 53.128C174.578 52.9733 174.847 52.896 175.13 52.896C175.594 52.896 175.943 53.0267 176.178 53.288C176.418 53.5493 176.538 53.9067 176.538 54.36V57H176.138ZM180.914 52.664C180.914 53 180.834 53.2827 180.674 53.512C180.519 53.736 180.317 53.928 180.066 54.088C179.927 54.1733 179.815 54.256 179.73 54.336C179.645 54.416 179.578 54.504 179.53 54.6C179.482 54.6907 179.45 54.7947 179.434 54.912C179.418 55.0293 179.41 55.1707 179.41 55.336H178.994C178.994 55.128 179.007 54.9493 179.034 54.8C179.066 54.6453 179.117 54.5093 179.186 54.392C179.255 54.2693 179.346 54.1573 179.458 54.056C179.575 53.9493 179.719 53.8373 179.89 53.72C180.274 53.464 180.466 53.12 180.466 52.688C180.466 52.352 180.357 52.088 180.138 51.896C179.925 51.704 179.647 51.608 179.306 51.608C178.89 51.608 178.57 51.7173 178.346 51.936C178.122 52.1547 178.01 52.4693 178.01 52.88H177.57C177.57 52.624 177.613 52.392 177.698 52.184C177.783 51.976 177.901 51.8 178.05 51.656C178.205 51.512 178.389 51.4 178.602 51.32C178.815 51.24 179.05 51.2 179.306 51.2C179.546 51.2 179.77 51.2427 179.978 51.328C180.186 51.408 180.362 51.5227 180.506 51.672C180.629 51.8053 180.727 51.9547 180.802 52.12C180.877 52.28 180.914 52.4613 180.914 52.664ZM178.89 57V56.376H179.522V57H178.89ZM184.636 58.6V56.328C184.53 56.5573 184.351 56.744 184.1 56.888C183.855 57.032 183.588 57.104 183.3 57.104C183.066 57.104 182.858 57.0667 182.676 56.992C182.5 56.9173 182.346 56.816 182.212 56.688C181.999 56.4853 181.842 56.2347 181.74 55.936C181.639 55.6373 181.588 55.3227 181.588 54.992C181.588 54.6453 181.642 54.3227 181.748 54.024C181.855 53.72 182.02 53.4693 182.244 53.272C182.378 53.1547 182.53 53.064 182.7 53C182.876 52.9307 183.079 52.896 183.308 52.896C183.442 52.896 183.575 52.9147 183.708 52.952C183.847 52.9893 183.975 53.0427 184.092 53.112C184.21 53.1813 184.316 53.2667 184.412 53.368C184.508 53.4693 184.583 53.5813 184.636 53.704L184.684 53H185.036V58.6H184.636ZM184.644 55C184.644 54.7227 184.604 54.4667 184.524 54.232C184.444 53.992 184.314 53.784 184.132 53.608C184.031 53.512 183.914 53.4347 183.78 53.376C183.647 53.3173 183.492 53.288 183.316 53.288C183.146 53.288 182.996 53.312 182.868 53.36C182.74 53.408 182.626 53.4773 182.524 53.568C182.338 53.7333 182.202 53.9413 182.116 54.192C182.036 54.4427 181.996 54.712 181.996 55C181.996 55.256 182.031 55.504 182.1 55.744C182.175 55.984 182.29 56.1893 182.444 56.36C182.551 56.4667 182.674 56.552 182.812 56.616C182.951 56.68 183.114 56.712 183.3 56.712C183.487 56.712 183.647 56.6853 183.78 56.632C183.919 56.5733 184.039 56.496 184.14 56.4C184.327 56.2293 184.458 56.0293 184.532 55.8C184.607 55.5653 184.644 55.2987 184.644 55ZM186.732 54.016V53.648H190.468V54.016H186.732ZM186.732 55.912V55.544H190.468V55.912H186.732ZM194.903 57L194.855 56.296C194.802 56.4187 194.727 56.5307 194.631 56.632C194.535 56.7333 194.428 56.8187 194.311 56.888C194.194 56.9573 194.066 57.0107 193.927 57.048C193.794 57.0853 193.66 57.104 193.527 57.104C193.298 57.104 193.095 57.0693 192.919 57C192.748 56.936 192.596 56.8453 192.463 56.728C192.239 56.5307 192.074 56.2827 191.967 55.984C191.86 55.68 191.807 55.3547 191.807 55.008C191.807 54.6773 191.858 54.3627 191.959 54.064C192.06 53.7653 192.218 53.5147 192.431 53.312C192.564 53.184 192.719 53.0827 192.895 53.008C193.076 52.9333 193.284 52.896 193.519 52.896C193.807 52.896 194.074 52.968 194.319 53.112C194.57 53.256 194.748 53.4427 194.855 53.672V51.224H195.255V57H194.903ZM194.863 55C194.863 54.7013 194.826 54.4373 194.751 54.208C194.676 53.9733 194.546 53.7707 194.359 53.6C194.258 53.504 194.138 53.4293 193.999 53.376C193.866 53.3173 193.706 53.288 193.519 53.288C193.332 53.288 193.17 53.32 193.031 53.384C192.892 53.448 192.77 53.5333 192.663 53.64C192.508 53.8107 192.394 54.016 192.319 54.256C192.25 54.496 192.215 54.744 192.215 55C192.215 55.288 192.255 55.5573 192.335 55.808C192.42 56.0587 192.556 56.2667 192.743 56.432C192.844 56.5227 192.959 56.592 193.087 56.64C193.215 56.688 193.364 56.712 193.535 56.712C193.711 56.712 193.866 56.6827 193.999 56.624C194.132 56.5653 194.25 56.488 194.351 56.392C194.532 56.216 194.663 56.0107 194.743 55.776C194.823 55.536 194.863 55.2773 194.863 55ZM199.959 54.832C199.959 54.88 199.956 54.9253 199.951 54.968C199.951 55.0053 199.951 55.048 199.951 55.096H196.895C196.9 55.3307 196.938 55.552 197.007 55.76C197.082 55.9627 197.183 56.1413 197.311 56.296C197.423 56.4293 197.556 56.5333 197.711 56.608C197.871 56.6827 198.06 56.72 198.279 56.72C198.636 56.72 198.927 56.6027 199.151 56.368C199.226 56.2933 199.287 56.2107 199.335 56.12C199.388 56.0293 199.428 55.9227 199.455 55.8H199.871C199.844 55.9707 199.791 56.128 199.711 56.272C199.631 56.4107 199.535 56.5333 199.423 56.64C199.279 56.784 199.108 56.8987 198.911 56.984C198.719 57.064 198.508 57.104 198.279 57.104C197.991 57.104 197.743 57.0507 197.535 56.944C197.327 56.8373 197.151 56.7013 197.007 56.536C196.842 56.344 196.714 56.12 196.623 55.864C196.538 55.6027 196.495 55.32 196.495 55.016C196.495 54.76 196.522 54.512 196.575 54.272C196.628 54.032 196.732 53.8053 196.887 53.592C197.228 53.128 197.682 52.896 198.247 52.896C198.519 52.896 198.759 52.9493 198.967 53.056C199.18 53.1627 199.359 53.3067 199.503 53.488C199.652 53.664 199.764 53.8693 199.839 54.104C199.919 54.3387 199.959 54.5813 199.959 54.832ZM199.551 54.728C199.546 54.536 199.514 54.3547 199.455 54.184C199.396 54.008 199.311 53.8533 199.199 53.72C199.087 53.5813 198.951 53.472 198.791 53.392C198.631 53.312 198.45 53.272 198.247 53.272C198.039 53.272 197.852 53.312 197.687 53.392C197.522 53.4667 197.38 53.5707 197.263 53.704C197.151 53.8373 197.063 53.992 196.999 54.168C196.935 54.344 196.903 54.5307 196.903 54.728H199.551ZM203.151 51.584C203.071 51.5733 202.983 51.5627 202.887 51.552C202.797 51.5413 202.693 51.536 202.575 51.536C202.069 51.536 201.815 51.7947 201.815 52.312V53H203.071V53.368H201.815V57H201.415V53.368H200.615V53H201.415V52.296C201.415 52.1413 201.439 51.9973 201.487 51.864C201.535 51.7307 201.605 51.6133 201.695 51.512C201.791 51.4053 201.909 51.3227 202.047 51.264C202.191 51.2053 202.357 51.176 202.543 51.176C202.661 51.176 202.767 51.1813 202.863 51.192C202.959 51.1973 203.055 51.208 203.151 51.224V51.584ZM203.924 51.888V51.328H204.484V51.888H203.924ZM203.996 57V53H204.42V57H203.996ZM208.794 57V54.384C208.794 54.032 208.714 53.7627 208.554 53.576C208.394 53.384 208.13 53.288 207.762 53.288C207.517 53.288 207.309 53.336 207.138 53.432C206.968 53.528 206.829 53.656 206.722 53.816C206.621 53.976 206.546 54.16 206.498 54.368C206.456 54.5707 206.434 54.7813 206.434 55V57H206.034V53H206.386L206.434 53.728C206.546 53.472 206.728 53.2693 206.978 53.12C207.234 52.9707 207.504 52.896 207.786 52.896C208.25 52.896 208.6 53.0267 208.834 53.288C209.074 53.5493 209.194 53.9067 209.194 54.36V57H208.794ZM213.818 54.832C213.818 54.88 213.816 54.9253 213.81 54.968C213.81 55.0053 213.81 55.048 213.81 55.096H210.754C210.76 55.3307 210.797 55.552 210.866 55.76C210.941 55.9627 211.042 56.1413 211.17 56.296C211.282 56.4293 211.416 56.5333 211.57 56.608C211.73 56.6827 211.92 56.72 212.138 56.72C212.496 56.72 212.786 56.6027 213.01 56.368C213.085 56.2933 213.146 56.2107 213.194 56.12C213.248 56.0293 213.288 55.9227 213.314 55.8H213.73C213.704 55.9707 213.65 56.128 213.57 56.272C213.49 56.4107 213.394 56.5333 213.282 56.64C213.138 56.784 212.968 56.8987 212.77 56.984C212.578 57.064 212.368 57.104 212.138 57.104C211.85 57.104 211.602 57.0507 211.394 56.944C211.186 56.8373 211.01 56.7013 210.866 56.536C210.701 56.344 210.573 56.12 210.482 55.864C210.397 55.6027 210.354 55.32 210.354 55.016C210.354 54.76 210.381 54.512 210.434 54.272C210.488 54.032 210.592 53.8053 210.746 53.592C211.088 53.128 211.541 52.896 212.106 52.896C212.378 52.896 212.618 52.9493 212.826 53.056C213.04 53.1627 213.218 53.3067 213.362 53.488C213.512 53.664 213.624 53.8693 213.698 54.104C213.778 54.3387 213.818 54.5813 213.818 54.832ZM213.41 54.728C213.405 54.536 213.373 54.3547 213.314 54.184C213.256 54.008 213.17 53.8533 213.058 53.72C212.946 53.5813 212.81 53.472 212.65 53.392C212.49 53.312 212.309 53.272 212.106 53.272C211.898 53.272 211.712 53.312 211.546 53.392C211.381 53.4667 211.24 53.5707 211.122 53.704C211.01 53.8373 210.922 53.992 210.858 54.168C210.794 54.344 210.762 54.5307 210.762 54.728H213.41ZM217.139 54.76V56.96H216.763V54.76H214.803V54.4H216.763V52.344H217.139V54.4H219.099V54.76H217.139ZM223.784 57C223.736 57.0107 223.704 57.016 223.688 57.016C223.672 57.0213 223.64 57.024 223.592 57.024C223.469 57.024 223.365 57.0027 223.28 56.96C223.2 56.9173 223.136 56.8613 223.088 56.792C223.04 56.7173 223.005 56.6347 222.984 56.544C222.968 56.448 222.96 56.3467 222.96 56.24C222.906 56.384 222.829 56.5093 222.728 56.616C222.632 56.7227 222.52 56.8133 222.392 56.888C222.264 56.9573 222.125 57.0107 221.976 57.048C221.826 57.0853 221.674 57.104 221.52 57.104C221.328 57.104 221.146 57.0747 220.976 57.016C220.81 56.9627 220.664 56.8827 220.536 56.776C220.413 56.6693 220.317 56.5413 220.248 56.392C220.178 56.2373 220.144 56.064 220.144 55.872C220.144 55.5147 220.266 55.2347 220.512 55.032C220.762 54.824 221.088 54.7067 221.488 54.68L222.96 54.576V54.184C222.96 53.8533 222.858 53.6187 222.656 53.48C222.458 53.3413 222.208 53.272 221.904 53.272C221.584 53.272 221.317 53.344 221.104 53.488C220.89 53.632 220.773 53.8533 220.752 54.152H220.352C220.378 53.7467 220.536 53.4373 220.824 53.224C221.112 53.0053 221.472 52.896 221.904 52.896C222.042 52.896 222.178 52.9093 222.312 52.936C222.45 52.9573 222.581 52.9973 222.704 53.056C222.826 53.1147 222.936 53.192 223.032 53.288C223.128 53.3787 223.202 53.4933 223.256 53.632C223.304 53.7547 223.333 53.88 223.344 54.008C223.354 54.136 223.36 54.2667 223.36 54.4V56.224C223.36 56.3627 223.376 56.4693 223.408 56.544C223.445 56.6187 223.533 56.656 223.672 56.656C223.72 56.656 223.757 56.6533 223.784 56.648V57ZM222.96 54.944L221.528 55.032C221.229 55.0533 220.992 55.1387 220.816 55.288C220.64 55.432 220.552 55.6267 220.552 55.872C220.552 56.16 220.645 56.376 220.832 56.52C221.024 56.664 221.264 56.736 221.552 56.736C221.802 56.736 222.016 56.6907 222.192 56.6C222.373 56.504 222.52 56.3813 222.632 56.232C222.744 56.0827 222.826 55.9147 222.88 55.728C222.933 55.536 222.96 55.344 222.96 55.152V54.944ZM227.02 53.384C226.956 53.368 226.889 53.3573 226.82 53.352C226.756 53.3467 226.692 53.344 226.628 53.344C226.377 53.344 226.169 53.3947 226.004 53.496C225.844 53.5973 225.716 53.7307 225.62 53.896C225.524 54.0613 225.455 54.248 225.412 54.456C225.375 54.664 225.356 54.872 225.356 55.08V57H224.956V53H225.308L225.356 53.808C225.447 53.5307 225.609 53.32 225.844 53.176C226.084 53.032 226.345 52.96 226.628 52.96C226.692 52.96 226.756 52.9627 226.82 52.968C226.889 52.968 226.956 52.9733 227.02 52.984V53.384ZM227.971 51.888V51.328H228.531V51.888H227.971ZM228.043 57V53H228.467V57H228.043ZM232.081 51.584C232.001 51.5733 231.913 51.5627 231.817 51.552C231.726 51.5413 231.622 51.536 231.505 51.536C230.998 51.536 230.745 51.7947 230.745 52.312V53H232.001V53.368H230.745V57H230.345V53.368H229.545V53H230.345V52.296C230.345 52.1413 230.369 51.9973 230.417 51.864C230.465 51.7307 230.534 51.6133 230.625 51.512C230.721 51.4053 230.838 51.3227 230.977 51.264C231.121 51.2053 231.286 51.176 231.473 51.176C231.59 51.176 231.697 51.1813 231.793 51.192C231.889 51.1973 231.985 51.208 232.081 51.224V51.584ZM235.014 54.76V56.96H234.638V54.76H232.678V54.4H234.638V52.344H235.014V54.4H236.974V54.76H235.014ZM241.795 55.008C241.795 55.3547 241.741 55.68 241.635 55.984C241.528 56.2827 241.363 56.5307 241.139 56.728C241.005 56.8453 240.851 56.936 240.675 57C240.504 57.0693 240.304 57.104 240.075 57.104C239.941 57.104 239.805 57.0853 239.667 57.048C239.533 57.0107 239.408 56.9573 239.291 56.888C239.173 56.8187 239.067 56.7333 238.971 56.632C238.875 56.5307 238.8 56.4187 238.747 56.296L238.699 57H238.347V51.224H238.747V53.672C238.853 53.4427 239.029 53.256 239.275 53.112C239.525 52.968 239.795 52.896 240.083 52.896C240.317 52.896 240.523 52.9333 240.699 53.008C240.88 53.0827 241.037 53.184 241.171 53.312C241.384 53.5147 241.541 53.7653 241.643 54.064C241.744 54.3627 241.795 54.6773 241.795 55.008ZM241.387 55C241.387 54.744 241.349 54.496 241.275 54.256C241.205 54.016 241.093 53.8107 240.939 53.64C240.832 53.5333 240.709 53.448 240.571 53.384C240.432 53.32 240.269 53.288 240.083 53.288C239.896 53.288 239.733 53.3173 239.595 53.376C239.461 53.4293 239.344 53.504 239.243 53.6C239.056 53.7707 238.925 53.9733 238.851 54.208C238.776 54.4373 238.739 54.7013 238.739 55C238.739 55.2773 238.779 55.536 238.859 55.776C238.939 56.0107 239.069 56.216 239.251 56.392C239.352 56.488 239.469 56.5653 239.603 56.624C239.736 56.6827 239.891 56.712 240.067 56.712C240.237 56.712 240.387 56.688 240.515 56.64C240.643 56.592 240.757 56.5227 240.859 56.432C241.045 56.2667 241.179 56.0587 241.259 55.808C241.344 55.5573 241.387 55.288 241.387 55ZM246.331 57C246.283 57.0107 246.251 57.016 246.235 57.016C246.219 57.0213 246.187 57.024 246.139 57.024C246.016 57.024 245.912 57.0027 245.827 56.96C245.747 56.9173 245.683 56.8613 245.635 56.792C245.587 56.7173 245.552 56.6347 245.531 56.544C245.515 56.448 245.507 56.3467 245.507 56.24C245.453 56.384 245.376 56.5093 245.275 56.616C245.179 56.7227 245.067 56.8133 244.939 56.888C244.811 56.9573 244.672 57.0107 244.523 57.048C244.373 57.0853 244.221 57.104 244.067 57.104C243.875 57.104 243.693 57.0747 243.523 57.016C243.357 56.9627 243.211 56.8827 243.083 56.776C242.96 56.6693 242.864 56.5413 242.795 56.392C242.725 56.2373 242.691 56.064 242.691 55.872C242.691 55.5147 242.813 55.2347 243.059 55.032C243.309 54.824 243.635 54.7067 244.035 54.68L245.507 54.576V54.184C245.507 53.8533 245.405 53.6187 245.203 53.48C245.005 53.3413 244.755 53.272 244.451 53.272C244.131 53.272 243.864 53.344 243.651 53.488C243.437 53.632 243.32 53.8533 243.299 54.152H242.899C242.925 53.7467 243.083 53.4373 243.371 53.224C243.659 53.0053 244.019 52.896 244.451 52.896C244.589 52.896 244.725 52.9093 244.859 52.936C244.997 52.9573 245.128 52.9973 245.251 53.056C245.373 53.1147 245.483 53.192 245.579 53.288C245.675 53.3787 245.749 53.4933 245.803 53.632C245.851 53.7547 245.88 53.88 245.891 54.008C245.901 54.136 245.907 54.2667 245.907 54.4V56.224C245.907 56.3627 245.923 56.4693 245.955 56.544C245.992 56.6187 246.08 56.656 246.219 56.656C246.267 56.656 246.304 56.6533 246.331 56.648V57ZM245.507 54.944L244.075 55.032C243.776 55.0533 243.539 55.1387 243.363 55.288C243.187 55.432 243.099 55.6267 243.099 55.872C243.099 56.16 243.192 56.376 243.379 56.52C243.571 56.664 243.811 56.736 244.099 56.736C244.349 56.736 244.563 56.6907 244.739 56.6C244.92 56.504 245.067 56.3813 245.179 56.232C245.291 56.0827 245.373 55.9147 245.427 55.728C245.48 55.536 245.507 55.344 245.507 55.152V54.944ZM250.359 55.888C250.359 56.1707 250.268 56.416 250.087 56.624C249.943 56.784 249.756 56.904 249.527 56.984C249.303 57.064 249.058 57.104 248.791 57.104C248.519 57.104 248.271 57.0613 248.047 56.976C247.823 56.8907 247.634 56.7627 247.479 56.592C247.367 56.464 247.284 56.3387 247.231 56.216C247.183 56.0933 247.154 55.9493 247.143 55.784H247.551C247.572 56.0187 247.671 56.224 247.847 56.4C247.964 56.512 248.103 56.5947 248.263 56.648C248.423 56.696 248.599 56.72 248.791 56.72C248.999 56.72 249.183 56.696 249.343 56.648C249.503 56.6 249.634 56.5253 249.735 56.424C249.81 56.3493 249.863 56.2747 249.895 56.2C249.932 56.1253 249.951 56.0293 249.951 55.912C249.951 55.7307 249.887 55.5733 249.759 55.44C249.636 55.3013 249.455 55.216 249.215 55.184L248.439 55.08C248.274 55.0587 248.108 55.0187 247.943 54.96C247.783 54.9013 247.647 54.808 247.535 54.68C247.386 54.504 247.311 54.2933 247.311 54.048C247.311 53.888 247.34 53.744 247.399 53.616C247.463 53.4827 247.548 53.368 247.655 53.272C247.799 53.1387 247.964 53.0427 248.151 52.984C248.343 52.9253 248.543 52.896 248.751 52.896C248.991 52.896 249.218 52.936 249.431 53.016C249.644 53.0907 249.82 53.208 249.959 53.368C250.05 53.4747 250.122 53.592 250.175 53.72C250.228 53.848 250.258 53.976 250.263 54.104H249.863C249.852 54.04 249.831 53.9627 249.799 53.872C249.772 53.7813 249.727 53.6987 249.663 53.624C249.572 53.5173 249.45 53.432 249.295 53.368C249.14 53.304 248.959 53.272 248.751 53.272C248.442 53.272 248.202 53.3333 248.031 53.456C247.823 53.6053 247.719 53.7893 247.719 54.008C247.719 54.1787 247.772 54.3227 247.879 54.44C247.986 54.5573 248.191 54.6373 248.495 54.68L249.255 54.784C249.442 54.8107 249.604 54.8613 249.743 54.936C249.882 55.0053 249.996 55.0907 250.087 55.192C250.178 55.2933 250.244 55.4053 250.287 55.528C250.335 55.6453 250.359 55.7653 250.359 55.888ZM254.357 57V54.384C254.357 54.032 254.277 53.76 254.117 53.568C253.957 53.3707 253.693 53.272 253.325 53.272C253.079 53.272 252.871 53.3227 252.701 53.424C252.53 53.52 252.391 53.6507 252.285 53.816C252.183 53.976 252.109 54.16 252.061 54.368C252.018 54.5707 251.997 54.7813 251.997 55V57H251.597V51.224H251.997V53.736C252.109 53.48 252.29 53.2773 252.541 53.128C252.797 52.9733 253.066 52.896 253.349 52.896C253.813 52.896 254.162 53.0267 254.397 53.288C254.637 53.5493 254.757 53.9067 254.757 54.36V57H254.357ZM259.573 57C259.525 57.0107 259.493 57.016 259.477 57.016C259.461 57.0213 259.429 57.024 259.381 57.024C259.258 57.024 259.154 57.0027 259.069 56.96C258.989 56.9173 258.925 56.8613 258.877 56.792C258.829 56.7173 258.794 56.6347 258.773 56.544C258.757 56.448 258.749 56.3467 258.749 56.24C258.695 56.384 258.618 56.5093 258.517 56.616C258.421 56.7227 258.309 56.8133 258.181 56.888C258.053 56.9573 257.914 57.0107 257.765 57.048C257.615 57.0853 257.463 57.104 257.309 57.104C257.117 57.104 256.935 57.0747 256.765 57.016C256.599 56.9627 256.453 56.8827 256.325 56.776C256.202 56.6693 256.106 56.5413 256.037 56.392C255.967 56.2373 255.933 56.064 255.933 55.872C255.933 55.5147 256.055 55.2347 256.301 55.032C256.551 54.824 256.877 54.7067 257.277 54.68L258.749 54.576V54.184C258.749 53.8533 258.647 53.6187 258.445 53.48C258.247 53.3413 257.997 53.272 257.693 53.272C257.373 53.272 257.106 53.344 256.893 53.488C256.679 53.632 256.562 53.8533 256.541 54.152H256.141C256.167 53.7467 256.325 53.4373 256.613 53.224C256.901 53.0053 257.261 52.896 257.693 52.896C257.831 52.896 257.967 52.9093 258.101 52.936C258.239 52.9573 258.37 52.9973 258.493 53.056C258.615 53.1147 258.725 53.192 258.821 53.288C258.917 53.3787 258.991 53.4933 259.045 53.632C259.093 53.7547 259.122 53.88 259.133 54.008C259.143 54.136 259.149 54.2667 259.149 54.4V56.224C259.149 56.3627 259.165 56.4693 259.197 56.544C259.234 56.6187 259.322 56.656 259.461 56.656C259.509 56.656 259.546 56.6533 259.573 56.648V57ZM258.749 54.944L257.317 55.032C257.018 55.0533 256.781 55.1387 256.605 55.288C256.429 55.432 256.341 55.6267 256.341 55.872C256.341 56.16 256.434 56.376 256.621 56.52C256.813 56.664 257.053 56.736 257.341 56.736C257.591 56.736 257.805 56.6907 257.981 56.6C258.162 56.504 258.309 56.3813 258.421 56.232C258.533 56.0827 258.615 55.9147 258.669 55.728C258.722 55.536 258.749 55.344 258.749 55.152V54.944ZM262.809 53.384C262.745 53.368 262.678 53.3573 262.609 53.352C262.545 53.3467 262.481 53.344 262.417 53.344C262.166 53.344 261.958 53.3947 261.793 53.496C261.633 53.5973 261.505 53.7307 261.409 53.896C261.313 54.0613 261.244 54.248 261.201 54.456C261.164 54.664 261.145 54.872 261.145 55.08V57H260.745V53H261.097L261.145 53.808C261.236 53.5307 261.398 53.32 261.633 53.176C261.873 53.032 262.134 52.96 262.417 52.96C262.481 52.96 262.545 52.9627 262.609 52.968C262.678 52.968 262.745 52.9733 262.809 52.984V53.384ZM265.92 54.76V56.96H265.544V54.76H263.584V54.4H265.544V52.344H265.92V54.4H267.88V54.76H265.92ZM273.189 54.184C273.189 54.3333 273.181 54.4907 273.165 54.656C273.154 54.8213 273.133 54.984 273.101 55.144C273.074 55.304 273.034 55.4587 272.981 55.608C272.928 55.7573 272.861 55.8907 272.781 56.008L273.669 57H273.157L272.565 56.328C272.362 56.568 272.117 56.76 271.829 56.904C271.541 57.0427 271.218 57.112 270.861 57.112C270.632 57.112 270.413 57.0747 270.205 57C270.002 56.9253 269.824 56.8187 269.669 56.68C269.52 56.5413 269.4 56.3733 269.309 56.176C269.224 55.9787 269.181 55.7573 269.181 55.512C269.181 55.224 269.248 54.9653 269.381 54.736C269.52 54.5067 269.712 54.32 269.957 54.176L270.405 53.912L269.989 53.448C269.85 53.2933 269.749 53.1387 269.685 52.984C269.626 52.8293 269.597 52.6613 269.597 52.48C269.597 52.304 269.629 52.1387 269.693 51.984C269.762 51.8293 269.856 51.696 269.973 51.584C270.09 51.472 270.232 51.384 270.397 51.32C270.562 51.2507 270.741 51.216 270.933 51.216C271.12 51.216 271.296 51.2453 271.461 51.304C271.626 51.3627 271.77 51.448 271.893 51.56C272.016 51.6667 272.112 51.8 272.181 51.96C272.256 52.1147 272.293 52.288 272.293 52.48C272.293 52.752 272.232 52.984 272.109 53.176C271.986 53.3627 271.816 53.52 271.597 53.648L271.005 54L272.509 55.704C272.626 55.496 272.704 55.2667 272.741 55.016C272.784 54.76 272.805 54.4773 272.805 54.168V53.824H273.797V54.184H273.189ZM271.901 52.48C271.901 52.208 271.808 51.992 271.621 51.832C271.44 51.6667 271.21 51.584 270.933 51.584C270.805 51.584 270.685 51.6053 270.573 51.648C270.461 51.6907 270.362 51.752 270.277 51.832C270.192 51.9067 270.122 52 270.069 52.112C270.021 52.2187 269.997 52.3413 269.997 52.48C269.997 52.6187 270.029 52.7547 270.093 52.888C270.157 53.016 270.237 53.136 270.333 53.248L270.749 53.728L271.397 53.328C271.552 53.232 271.674 53.112 271.765 52.968C271.856 52.8187 271.901 52.656 271.901 52.48ZM270.661 54.2L270.213 54.464C270.021 54.576 269.869 54.7227 269.757 54.904C269.645 55.0853 269.589 55.288 269.589 55.512C269.589 55.6933 269.621 55.8587 269.685 56.008C269.754 56.152 269.848 56.2773 269.965 56.384C270.082 56.4853 270.216 56.5653 270.365 56.624C270.52 56.6827 270.685 56.712 270.861 56.712C271.181 56.712 271.456 56.6507 271.685 56.528C271.914 56.4053 272.114 56.2373 272.285 56.024L270.661 54.2Z" fill="white" fill-opacity="0.5"/>
<g opacity="0.4">
<path d="M96.3333 54.6667H91.6667C91.2985 54.6667 91 54.9652 91 55.3334V57.6667C91 58.0349 91.2985 58.3334 91.6667 58.3334H96.3333C96.7015 58.3334 97 58.0349 97 57.6667V55.3334C97 54.9652 96.7015 54.6667 96.3333 54.6667Z" stroke="white" stroke-width="0.5" stroke-linecap="round" stroke-linejoin="round"/>
<path d="M92.3333 54.6667V53.3334C92.3333 52.8913 92.5089 52.4674 92.8215 52.1548C93.1341 51.8423 93.558 51.6667 94 51.6667C94.442 51.6667 94.866 51.8423 95.1785 52.1548C95.4911 52.4674 95.6667 52.8913 95.6667 53.3334V54.6667" stroke="white" stroke-width="0.5" stroke-linecap="round" stroke-linejoin="round"/>
</g>
<defs>
<filter id="filter0_f" x="0" y="0" width="320" height="386" filterUnits="userSpaceOnUse" color-interpolation-filters="sRGB">
<feFlood flood-opacity="0" result="BackgroundImageFix"/>
<feBlend mode="normal" in="SourceGraphic" in2="BackgroundImageFix" result="shape"/>
<feGaussianBlur stdDeviation="1.5" result="effect1_foregroundBlur"/>
</filter>
</defs>
</svg>
